<svg width="342" height="978" viewBox="0 0 342 978" fill="none" xmlns="http://www.w3.org/2000/svg">
<path d="M0 81.68C0 77.4384 3.43845 74 7.68 74H193.32C197.562 74 201 77.4385 201 81.68V271.32C201 275.562 197.562 279 193.32 279H7.67999C3.43844 279 0 275.562 0 271.32V81.68Z" fill="#5A72CC" fill-opacity="0.1"/>
<g opacity="0.5">
<path d="M214 354.059C214 347.951 218.951 343 225.059 343H330.941C337.049 343 342 347.951 342 354.059V459.941C342 466.049 337.049 471 330.941 471H225.059C218.951 471 214 466.049 214 459.941V354.059Z" fill="#5A72CC" fill-opacity="0.1"/>
</g>
<g opacity="0.5">
<path d="M8 844.059C8 837.951 12.9514 833 19.0592 833H151.941C158.049 833 163 837.951 163 844.059V966.941C163 973.049 158.049 978 151.941 978H19.0592C12.9514 978 8 973.049 8 966.941V844.059Z" fill="#5A72CC" fill-opacity="0.1"/>
</g>
<g opacity="0.5">
<path d="M142 457.059C142 450.951 146.951 446 153.059 446H238.941C245.049 446 250 450.951 250 457.059V551.941C250 558.049 245.049 563 238.941 563H153.059C146.951 563 142 558.049 142 551.941V457.059Z" fill="#5A72CC" fill-opacity="0.1"/>
</g>
<path d="M142 270.68C142 266.438 145.438 263 149.68 263H278.32C282.562 263 286 266.438 286 270.68V355.32C286 359.562 282.562 363 278.32 363H149.68C145.438 363 142 359.562 142 355.32V270.68Z" fill="#5A72CC" fill-opacity="0.1"/>
<path d="M167 7.68C167 3.43845 170.438 0 174.68 0H303.32C307.562 0 311 3.43845 311 7.68V92.32C311 96.5615 307.562 100 303.32 100H174.68C170.438 100 167 96.5615 167 92.32V7.68Z" fill="#5A72CC" fill-opacity="0.1"/>
<path d="M0 539.68C0 535.438 3.43845 532 7.68 532H188.32C192.562 532 196 535.438 196 539.68V668.32C196 672.562 192.562 676 188.32 676H7.67999C3.43844 676 0 672.562 0 668.32V539.68Z" fill="#5A72CC" fill-opacity="0.1"/>
<path d="M136 645.68C136 641.438 139.438 638 143.68 638H334.32C338.562 638 342 641.438 342 645.68V837.32C342 841.562 338.562 845 334.32 845H143.68C139.438 845 136 841.562 136 837.32V645.68Z" fill="#5A72CC" fill-opacity="0.1"/>
</svg>
