<svg width="344" height="478" viewBox="0 0 344 478" fill="none" xmlns="http://www.w3.org/2000/svg">
<rect x="23.0425" y="22" width="308" height="456" rx="16" fill="#5A72CC" fill-opacity="0.15"/>
<path d="M0.0424805 16C0.0424805 7.16344 7.20592 0 16.0425 0H292.042C300.879 0 308.042 7.16344 308.042 16V440C308.042 448.837 300.879 456 292.042 456H16.0425C7.20593 456 0.0424805 448.837 0.0424805 440V16Z" fill="#2748BE"/>
<path d="M98.6025 376.57H70.3485C68.6765 376.57 67.3225 377.924 67.3225 379.596V423.464C67.3225 425.136 68.6765 426.49 70.3485 426.49H98.6025C100.274 426.49 101.626 425.136 101.626 423.464V379.594C101.626 377.922 100.272 376.57 98.6025 376.57ZM142.656 286H114.402C112.73 286 111.376 287.354 111.376 289.026V423.462C111.376 425.134 112.73 426.488 114.402 426.488H142.656C144.328 426.488 145.682 425.134 145.682 423.462V289.026C145.682 287.354 144.328 286 142.656 286ZM186.936 326.842H158.682C157.01 326.842 155.656 328.196 155.656 329.868V423.462C155.656 425.134 157.01 426.488 158.682 426.488H186.934C188.606 426.488 189.96 425.134 189.96 423.462V329.868C189.96 328.198 188.606 326.842 186.936 326.842ZM54.3225 326.842H26.0685C24.3965 326.842 23.0425 328.196 23.0425 329.868V423.462C23.0425 425.134 24.3965 426.488 26.0685 426.488H54.3225C55.9945 426.488 57.3485 425.134 57.3485 423.462V329.868C57.3485 328.198 55.9945 326.842 54.3225 326.842Z" fill="#E2E4F1" fill-opacity="0.3"/>
<path d="M313.663 45.6604L247.408 111.928H238.292L217.1 90.7229L170.158 137.678L161.042 128.562L212.542 77.0625H221.658L242.85 98.2676L309.105 32H318.208L343.958 57.75L334.855 66.8655L313.663 45.6604Z" fill="#E2E4F1" fill-opacity="0.3"/>
<path d="M86.9988 129.836C88.4828 129.836 89.4348 130.788 89.4348 132.244V156.128H84.5348V144.648H82.9948V156.128H77.9548V132.328C77.9548 130.788 78.9908 129.836 80.4748 129.836C81.9588 129.836 82.9948 130.788 82.9948 132.328V140H84.5348V132.244C84.5348 130.788 85.5148 129.836 86.9988 129.836ZM70.3948 149.996H74.9028C76.5268 149.996 77.0028 151.256 77.0028 152.32C77.0028 153.412 76.4988 154.728 74.9028 154.728H68.2388C65.1588 154.728 64.2068 153.552 64.2068 150.612V133.672C64.2068 131.796 65.4388 130.956 66.9508 130.956C68.4908 130.956 69.5828 131.824 69.5828 133.672V149.212C69.5828 149.856 69.7508 149.996 70.3948 149.996ZM124.162 135.016H125.03C126.738 135.016 127.242 136.332 127.242 137.452C127.242 138.6 126.71 139.888 125.03 139.888H124.162V145.208H118.562V132.608C118.562 130.788 119.878 129.836 121.362 129.836C122.846 129.836 124.162 130.788 124.162 132.608V135.016ZM102.21 145.292C100.838 145.32 99.6625 144.508 99.6345 143.108C99.6345 141.932 100.222 141.148 101.342 140.952C103.946 140.504 105.402 138.6 105.402 136.164V135.212H101.874C100.558 135.212 99.8305 134.008 99.8305 133C99.8305 131.992 100.446 130.732 101.874 130.732H114.698C116.126 130.732 116.742 131.992 116.742 133C116.742 134.008 116.014 135.212 114.698 135.212H110.722V136.164C110.722 136.5 110.694 136.808 110.666 137.116C114.978 137.368 117.05 139.776 116.938 144.788H111.702C111.898 142.772 110.89 141.232 109.322 141.148C107.698 143.752 104.87 145.264 102.21 145.292ZM103.526 146.356H120.326C123.826 146.356 124.47 147.308 124.47 150.668V156.128H118.814V151.396C118.814 150.976 118.59 150.724 118.142 150.724H103.526C101.986 150.724 101.118 149.856 101.118 148.54C101.118 147.224 101.986 146.356 103.526 146.356ZM152.47 139.02H132.282C129.174 139.02 128.614 138.152 128.614 135.128V134.148C128.614 131.124 129.174 130.256 132.282 130.256H148.802C151.91 130.256 152.47 131.124 152.47 134.148V139.02ZM134.186 134.344V134.904C134.186 135.184 134.242 135.352 134.746 135.352H146.898V134.344C146.898 134.12 146.87 133.924 146.338 133.924H134.746C134.214 133.924 134.186 134.12 134.186 134.344ZM134.83 152.964H151.714C152.862 152.964 153.282 153.748 153.282 154.56C153.282 155.372 152.89 156.128 151.714 156.128H131.75C129.342 156.128 128.222 154.532 128.222 152.656V152.432C128.222 150.528 129.314 149.156 131.75 149.156H146.73V148.596C146.73 148.344 146.59 148.176 146.226 148.176H130.098C129.062 148.176 128.502 147.42 128.502 146.608C128.502 145.796 128.978 145.04 130.098 145.04H137.686V143.808H129.482C128.138 143.808 127.438 143.192 127.438 142.016C127.438 140.868 128.11 140.196 129.482 140.196H151.602C152.974 140.196 153.646 140.868 153.646 142.016C153.646 143.192 152.946 143.808 151.602 143.808H143.398V145.04H149.362C151.742 145.04 152.498 145.936 152.498 147.644V151.984H134.83C134.438 151.984 134.242 152.18 134.242 152.488C134.242 152.768 134.438 152.964 134.83 152.964ZM172.602 129.836C174.086 129.836 174.982 130.788 174.982 132.188V156.128H170.222V144.928H168.318V148.428C168.318 152.824 166.246 155.456 162.186 155.456C158.126 155.456 156.026 152.824 156.026 148.428V137.452C156.026 133.084 158.098 130.424 162.158 130.424C166.246 130.424 168.318 133.056 168.318 137.452V140.28H170.222V132.188C170.222 130.788 171.118 129.836 172.602 129.836ZM178.846 129.836C180.33 129.836 181.282 130.788 181.282 132.244V156.128H176.382V132.244C176.382 130.788 177.362 129.836 178.846 129.836ZM163.502 149.128V136.724C163.502 135.408 162.942 134.736 162.158 134.764C161.374 134.792 160.842 135.408 160.842 136.724V149.128C160.842 150.444 161.374 151.116 162.158 151.116C162.942 151.116 163.502 150.444 163.502 149.128ZM216.01 134.596H216.878C218.586 134.596 219.09 135.912 219.09 137.032C219.09 138.18 218.558 139.468 216.878 139.468H216.01V143.948H210.41V132.608C210.41 130.788 211.726 129.836 213.21 129.836C214.694 129.836 216.01 130.788 216.01 132.608V134.596ZM207.554 143.444H195.822C193.106 143.444 192.098 142.772 192.098 140.224V133.896C192.098 131.348 193.106 130.648 195.822 130.648H203.998C206.518 130.648 207.554 131.348 207.554 134.064V143.444ZM197.334 135.212V138.852C197.334 139.188 197.502 139.412 197.922 139.412H202.374V135.184C202.374 134.848 202.234 134.652 201.842 134.652H197.866C197.474 134.652 197.334 134.876 197.334 135.212ZM207.33 150.36C211.782 149.996 216.094 151.844 217.41 156.128H211.614C210.242 154.224 207.61 153.244 204.642 153.496C202.01 155.456 198.286 156.324 195.038 156.268C193.47 156.24 192.546 155.456 192.546 154.056C192.546 153.048 193.358 152.264 194.646 152.236C197.558 152.236 201.03 151.34 202.402 149.016H194.926C193.47 149.016 192.938 148.036 192.938 147.028C192.938 146.02 193.442 145.068 194.926 145.068H214.526C216.01 145.068 216.514 146.02 216.514 147.028C216.514 148.036 215.982 149.016 214.526 149.016H207.806C207.694 149.492 207.526 149.94 207.33 150.36ZM227.098 135.52H242.162C243.786 135.52 244.402 136.584 244.402 137.704C244.402 138.852 243.758 139.972 242.162 139.972H224.438C221.526 139.972 220.574 138.796 220.574 136.416V132.86C220.574 130.984 221.946 130.144 223.458 130.144C224.998 130.144 226.286 131.012 226.286 132.86V134.932C226.286 135.38 226.454 135.52 227.098 135.52ZM221.638 141.596H243.142C244.822 141.596 245.494 142.744 245.494 143.892C245.494 145.068 244.794 146.188 243.142 146.188H221.638C219.986 146.188 219.286 145.068 219.286 143.892C219.286 142.744 219.958 141.596 221.638 141.596ZM242.274 156.128H224.69C221.526 156.128 220.686 155.092 220.686 152.068V149.912C220.686 148.008 222.03 147.308 223.598 147.308C225.166 147.308 226.426 148.036 226.426 149.912V151.088C226.426 151.704 226.566 151.788 227.182 151.788H242.274C243.982 151.788 244.626 152.824 244.626 153.944C244.626 155.092 243.954 156.128 242.274 156.128ZM27.8712 169.504V189.312C27.8712 190.016 28.0632 190.176 28.7672 190.176H30.8472C32.5752 190.176 33.2472 191.52 33.2472 192.736C33.2472 193.952 32.5752 195.392 30.8472 195.392H26.7832C23.1992 195.392 22.1432 194.112 22.1432 190.688V168.128C22.1432 164.704 23.1992 163.424 26.7832 163.424H30.8472C32.5752 163.424 33.2472 164.864 33.2472 166.08C33.2472 167.296 32.5752 168.64 30.8472 168.64H28.7672C28.0632 168.64 27.8712 168.8 27.8712 169.504ZM62.6937 175.584H63.8457C65.7977 175.584 66.3737 177.088 66.3737 178.368C66.3737 179.68 65.7657 181.152 63.8457 181.152H62.6937V194.432H56.2937V167.552C56.2937 165.472 57.7977 164.384 59.4937 164.384C61.1897 164.384 62.6937 165.472 62.6937 167.552V175.584ZM38.2777 165.536H47.7497C51.2697 165.536 52.6137 167.168 52.6137 170.08V177.6C52.6137 188.512 45.9897 192.768 38.2457 193.088C36.5177 193.184 34.9497 192.224 35.0457 190.336C35.1097 188.992 35.9097 187.968 37.5097 187.776C42.5657 187.2 46.3097 185.056 46.3097 177.568V171.84C46.3097 171.392 46.0217 171.04 45.5097 171.04H38.2777C36.3577 171.04 35.4297 169.664 35.4297 168.32C35.4297 167.008 36.3257 165.536 38.2777 165.536ZM82.5337 177.6C80.0057 180.608 75.4297 182.08 69.9897 181.728C68.4857 181.632 67.3017 180.576 67.3977 178.88C67.4937 177.376 68.6137 176.576 70.1497 176.608C75.4617 176.768 78.4377 174.816 78.4377 171.584V170.976C78.4377 170.496 78.1817 170.304 77.7337 170.304H70.5657C68.7097 170.304 67.9417 169.024 67.9417 167.776C67.9417 166.528 68.6777 165.248 70.5657 165.248H80.1657C82.7577 165.248 84.0377 166.112 84.4857 167.776H89.2537V167.552C89.2537 165.472 90.7577 164.384 92.4537 164.384C94.1497 164.384 95.6537 165.472 95.6537 167.552V181.632H89.2537V179.008H84.8697C83.7177 179.008 82.8537 178.496 82.5337 177.6ZM84.8697 174.496H89.2537V172.288H84.6457C84.5817 173.088 84.4217 173.856 84.1977 174.56C84.4217 174.528 84.6457 174.496 84.8697 174.496ZM71.3017 182.944H91.1097C95.1097 182.944 95.8457 184.032 95.8457 187.872V194.432H89.3817V188.768C89.3817 188.288 89.1257 188 88.6137 188H71.3017C69.5097 188 68.5177 186.976 68.5177 185.472C68.5177 183.968 69.5097 182.944 71.3017 182.944ZM127.182 164.384C128.878 164.384 129.902 165.472 129.902 167.072V194.432H124.462V180.128H122.382C120.622 180.128 119.534 179.04 119.534 177.408C119.534 175.808 120.59 174.656 122.382 174.656H124.462V167.072C124.462 165.472 125.486 164.384 127.182 164.384ZM134.318 164.384C136.014 164.384 137.102 165.472 137.102 167.136V194.432H131.502V167.136C131.502 165.472 132.622 164.384 134.318 164.384ZM117.966 179.968C120.878 181.472 123.726 184.48 123.246 192.512H117.55C118.126 189.248 117.646 187.232 116.59 186.016C115.054 190.368 112.558 192.96 109.87 192.96C108.366 192.96 107.15 191.968 107.15 190.496C107.15 189.632 107.566 188.8 108.558 187.968C111.31 185.632 112.494 181.664 112.494 175.424V171.072H109.998C108.078 171.072 107.278 169.728 107.278 168.416C107.278 167.136 108.046 165.728 109.998 165.728H120.654C122.606 165.728 123.31 167.136 123.31 168.416C123.31 169.728 122.574 171.072 120.654 171.072H118.254V175.328C118.254 176.96 118.158 178.528 117.966 179.968ZM167.822 172.384H168.814C170.766 172.384 171.342 173.888 171.342 175.168C171.342 176.48 170.734 177.952 168.814 177.952H167.822V187.072H161.422V167.552C161.422 165.472 162.926 164.384 164.622 164.384C166.318 164.384 167.822 165.472 167.822 167.552V172.384ZM149.358 182.144C144.142 182.144 140.398 179.68 140.398 174.912V172.128C140.398 167.392 144.11 164.896 149.326 164.896C154.542 164.896 158.286 167.36 158.286 172.128V174.912C158.286 179.68 154.542 182.144 149.358 182.144ZM146.574 172.096V174.912C146.574 176.48 147.79 177.376 149.326 177.376C150.862 177.376 152.11 176.48 152.11 174.912V172.096C152.11 170.56 150.862 169.632 149.326 169.664C147.79 169.696 146.574 170.592 146.574 172.096ZM149.326 189.504H166.19C168.11 189.504 168.846 190.656 168.846 191.936C168.846 193.248 168.078 194.432 166.19 194.432H146.606C143.022 194.432 142.062 193.184 142.062 189.76V186.4C142.062 184.32 143.566 183.328 145.358 183.328C147.15 183.328 148.558 184.352 148.558 186.4V188.768C148.558 189.376 148.718 189.504 149.326 189.504ZM206.391 164.384C208.087 164.384 209.591 165.472 209.591 167.552V194.432H203.191V179.008H199.511C197.751 179.008 196.663 177.92 196.663 176.288C196.663 174.688 197.719 173.536 199.511 173.536H203.191V167.552C203.191 165.472 204.695 164.384 206.391 164.384ZM192.727 177.28C198.359 179.424 200.823 183.744 200.247 192.608H194.103C194.711 187.776 193.975 184.768 191.447 183.04C190.071 187.168 187.831 190.144 184.791 192.096C183.127 193.248 181.047 192.992 180.183 191.872C179.319 190.88 179.255 189.024 180.663 188C185.463 184.576 186.775 179.872 186.775 170.944V168.448C186.775 166.4 188.279 165.344 189.975 165.344C191.607 165.344 193.111 166.496 193.111 168.448V170.912C193.111 173.216 192.983 175.328 192.727 177.28ZM238.391 164.384C240.087 164.384 241.591 165.472 241.591 167.552V194.432H235.191V167.552C235.191 165.472 236.695 164.384 238.391 164.384ZM228.663 165.44C230.519 165.44 231.703 166.432 231.703 168.576V193.056H218.103C214.391 193.056 213.463 191.776 213.463 188.256V168.576C213.463 166.4 214.775 165.44 216.631 165.44C218.455 165.44 219.639 166.432 219.639 168.576V173.504H225.591V168.576C225.591 166.4 226.839 165.44 228.663 165.44ZM220.535 187.776H225.591V178.72H219.639V186.944C219.639 187.68 219.799 187.776 220.535 187.776ZM248.087 183.2C246.519 183.2 245.207 182.304 245.047 180.736C244.887 179.2 245.719 177.952 247.351 177.6C251.575 176.672 255.447 173.088 256.119 167.712C256.375 165.696 257.783 164.832 259.511 164.832C261.431 164.832 262.807 166.112 262.743 168.224C262.711 169.216 262.551 170.208 262.327 171.168C267.703 171.296 273.239 175.04 273.847 183.2H267.351C266.775 178.88 263.639 176.256 259.831 176.352C256.919 180.384 252.311 183.2 248.087 183.2ZM247.287 188.384H271.735C273.719 188.384 274.487 189.792 274.487 191.104C274.487 192.448 273.687 193.792 271.735 193.792H247.287C245.335 193.792 244.535 192.448 244.535 191.104C244.535 189.792 245.303 188.384 247.287 188.384ZM281.207 189.312V169.504C281.207 168.8 281.015 168.64 280.311 168.64H278.231C276.503 168.64 275.831 167.296 275.831 166.08C275.831 164.864 276.503 163.424 278.231 163.424H282.295C285.879 163.424 286.935 164.704 286.935 168.128V190.688C286.935 194.112 285.879 195.392 282.295 195.392H278.231C276.503 195.392 275.831 193.952 275.831 192.736C275.831 191.52 276.503 190.176 278.231 190.176H280.311C281.015 190.176 281.207 190.016 281.207 189.312Z" fill="white"/>
<path d="M51.2385 257.04C52.7905 256.848 53.7185 255.888 53.7345 254.368V254.272H51.5105C50.7585 254.272 50.3425 253.6 50.3425 253.024C50.3425 252.448 50.6945 251.744 51.5105 251.744H53.6705V251.568C53.6705 250.624 54.2305 250.176 55.2225 250.176C56.2145 250.176 56.7905 250.64 56.7905 251.568V251.744H59.0785C59.8945 251.744 60.2465 252.448 60.2465 253.024C60.2465 253.6 59.8305 254.272 59.0785 254.272H56.7425V254.368C56.7425 254.688 56.7265 254.992 56.6785 255.28C59.1265 255.312 60.3585 256.624 60.3105 259.424H57.3505C57.3985 258.048 56.7425 257.408 55.7505 257.504C54.7425 258.832 53.1425 259.552 51.5905 259.536C50.8225 259.536 50.1825 258.992 50.1825 258.208C50.1825 257.568 50.5825 257.12 51.2385 257.04ZM62.9825 250.192C63.8305 250.192 64.5825 250.736 64.5825 251.776V265.216H61.3825V251.776C61.3825 250.736 62.1345 250.192 62.9825 250.192ZM56.8545 262.064H59.4785C60.4385 262.064 60.8225 262.736 60.8225 263.392C60.8225 264.064 60.4225 264.688 59.4785 264.688H51.3985C50.4545 264.688 50.0545 264.064 50.0545 263.392C50.0545 262.736 50.4385 262.064 51.3985 262.064H53.7505V260.512C53.7505 259.504 54.4545 259.184 55.3025 259.184C56.1345 259.184 56.8545 259.52 56.8545 260.512V262.064ZM79.5265 256.512H79.6865C80.6465 256.512 81.0305 257.168 81.0305 257.824C81.0305 258.496 80.6305 259.136 79.6865 259.136H67.3985C66.4545 259.136 66.0545 258.496 66.0545 257.824C66.0545 257.168 66.4385 256.512 67.3985 256.512H76.3585C76.6785 255.872 76.9345 255.024 76.9345 253.952V253.472C76.9345 253.184 76.8225 253.12 76.5345 253.12H68.1985C67.1585 253.12 66.7265 252.528 66.7265 251.792C66.7265 251.104 67.1425 250.496 68.1985 250.496H77.9745C79.5265 250.496 80.1185 251.152 80.1185 252.304V253.408C80.1185 254.88 79.8625 255.856 79.5265 256.512ZM70.5665 262.704H79.1905C80.1665 262.704 80.5345 263.312 80.5345 263.952C80.5345 264.608 80.1505 265.216 79.1905 265.216H69.1425C67.3345 265.216 66.8545 264.624 66.8545 262.832V261.376C66.8545 260.256 67.6225 259.856 68.5185 259.856C69.4145 259.856 70.1345 260.272 70.1345 261.376V262.272C70.1345 262.656 70.2145 262.704 70.5665 262.704ZM90.5229 255.792H91.2109C94.1389 255.792 96.0589 257.248 96.0589 260.288C96.0589 263.68 93.9629 265.12 91.1469 265.12C89.5149 265.12 87.9309 264.576 87.1789 263.696C86.6829 263.12 86.7149 262.176 87.2589 261.696C87.7069 261.296 88.3789 261.296 88.7949 261.488C89.1469 261.648 89.3709 261.808 89.6109 261.936C89.8669 262.064 90.2669 262.208 90.9709 262.208C92.1229 262.208 92.9229 261.584 92.9229 260.288C92.9229 259.104 92.2029 258.496 90.7149 258.496H89.4189C87.5309 258.496 86.9709 257.904 87.0669 256.096L87.2109 253.232C87.3069 251.424 87.6589 250.832 89.5469 250.832H94.3949C95.3069 250.832 95.6589 251.584 95.6589 252.224C95.6589 252.864 95.3229 253.568 94.3949 253.568H90.6029C90.3149 253.568 90.2189 253.6 90.2029 253.904L90.1389 255.456C90.1229 255.76 90.2349 255.792 90.5229 255.792ZM105.755 254.32H108.539V253.536H105.755C105.051 253.536 104.555 253.152 104.555 252.464C104.555 251.792 105.035 251.36 105.755 251.36H108.587C108.763 250.592 109.419 250.192 110.139 250.192C110.987 250.192 111.739 250.736 111.739 251.776V261.536H108.539V256.496H105.755C105.051 256.496 104.555 256.112 104.555 255.424C104.555 254.752 105.035 254.32 105.755 254.32ZM106.539 259.456H99.7867C98.2667 259.456 97.7227 258.784 97.7227 257.424V252.144C97.7227 251.152 98.4587 250.672 99.3227 250.672C100.203 250.672 100.875 251.168 100.875 252.112V256.64C100.875 256.928 100.971 257.008 101.259 257.008H106.539C107.451 257.008 107.755 257.584 107.755 258.208C107.755 258.848 107.435 259.456 106.539 259.456ZM102.043 262.752H110.859C111.803 262.752 112.171 263.344 112.171 263.984C112.171 264.64 111.787 265.216 110.859 265.216H100.731C98.9387 265.216 98.4587 264.592 98.4587 262.88V261.552C98.4587 260.56 99.2107 260.064 100.107 260.064C101.003 260.064 101.707 260.576 101.707 261.552V262.448C101.707 262.704 101.787 262.752 102.043 262.752ZM127.339 254.192H127.835C128.811 254.192 129.099 254.944 129.099 255.584C129.099 256.24 128.795 256.976 127.835 256.976H127.339V261.536H124.139V251.776C124.139 250.736 124.891 250.192 125.739 250.192C126.587 250.192 127.339 250.736 127.339 251.776V254.192ZM122.411 252.848V253.808C122.411 257.456 119.179 259.456 114.891 259.184C114.155 259.136 113.563 258.576 113.611 257.728C113.659 256.976 114.219 256.576 114.987 256.592C117.675 256.656 119.243 255.632 119.243 253.904V253.6C119.243 253.36 119.115 253.264 118.875 253.264H115.195C114.267 253.264 113.883 252.608 113.883 251.984C113.883 251.36 114.251 250.704 115.195 250.704H120.091C121.819 250.704 122.411 251.424 122.411 252.848ZM118.075 262.752H126.523C127.483 262.752 127.851 263.328 127.851 263.968C127.851 264.624 127.467 265.216 126.523 265.216H116.731C114.939 265.216 114.459 264.592 114.459 262.88V261.344C114.459 260.32 115.211 259.824 116.107 259.824C117.003 259.824 117.707 260.336 117.707 261.344V262.4C117.707 262.704 117.787 262.752 118.075 262.752ZM143.739 265.216H140.539V251.776C140.539 250.736 141.291 250.192 142.139 250.192C142.987 250.192 143.739 250.736 143.739 251.776V265.216ZM129.611 256.048V254.512C129.611 251.728 131.659 250.464 134.283 250.464C136.907 250.464 138.939 251.728 138.939 254.512V256.048C138.939 258.832 136.907 260.096 134.283 260.096C131.659 260.096 129.611 258.832 129.611 256.048ZM132.747 254.4V256.16C132.747 257.2 133.515 257.584 134.283 257.584C135.051 257.584 135.819 257.2 135.819 256.16V254.4C135.819 253.376 135.051 252.976 134.283 252.976C133.515 252.976 132.747 253.376 132.747 254.4ZM130.587 261.952H138.603C139.595 261.952 139.979 262.656 139.979 263.312C139.979 263.984 139.579 264.656 138.603 264.656H130.587C129.611 264.656 129.211 263.984 129.211 263.312C129.211 262.656 129.595 261.952 130.587 261.952ZM64.1825 272.152H64.6785C65.6545 272.152 65.9425 272.904 65.9425 273.544C65.9425 274.2 65.6385 274.936 64.6785 274.936H64.1825V277.976H60.9825V270.776C60.9825 269.736 61.7345 269.192 62.5825 269.192C63.4305 269.192 64.1825 269.736 64.1825 270.776V272.152ZM51.6385 278.024C50.8545 278.04 50.1825 277.576 50.1665 276.776C50.1665 276.104 50.5025 275.656 51.1425 275.544C52.6305 275.288 53.4625 274.2 53.4625 272.808V272.264H51.4465C50.6945 272.264 50.2785 271.576 50.2785 271C50.2785 270.424 50.6305 269.704 51.4465 269.704H58.7745C59.5905 269.704 59.9425 270.424 59.9425 271C59.9425 271.576 59.5265 272.264 58.7745 272.264H56.5025V272.808C56.5025 273 56.4865 273.176 56.4705 273.352C58.9345 273.496 60.1185 274.872 60.0545 277.736H57.0625C57.1745 276.584 56.5985 275.704 55.7025 275.656C54.7745 277.144 53.1585 278.008 51.6385 278.024ZM52.3905 278.632H61.9905C63.9905 278.632 64.3585 279.176 64.3585 281.096V284.216H61.1265V281.512C61.1265 281.272 60.9985 281.128 60.7425 281.128H52.3905C51.5105 281.128 51.0145 280.632 51.0145 279.88C51.0145 279.128 51.5105 278.632 52.3905 278.632ZM80.3585 274.44H68.8225C67.0465 274.44 66.7265 273.944 66.7265 272.216V271.656C66.7265 269.928 67.0465 269.432 68.8225 269.432H78.2625C80.0385 269.432 80.3585 269.928 80.3585 271.656V274.44ZM69.9105 271.768V272.088C69.9105 272.248 69.9425 272.344 70.2305 272.344H77.1745V271.768C77.1745 271.64 77.1585 271.528 76.8545 271.528H70.2305C69.9265 271.528 69.9105 271.64 69.9105 271.768ZM70.2785 282.408H79.9265C80.5825 282.408 80.8225 282.856 80.8225 283.32C80.8225 283.784 80.5985 284.216 79.9265 284.216H68.5185C67.1425 284.216 66.5025 283.304 66.5025 282.232V282.104C66.5025 281.016 67.1265 280.232 68.5185 280.232H77.0785V279.912C77.0785 279.768 76.9985 279.672 76.7905 279.672H67.5745C66.9825 279.672 66.6625 279.24 66.6625 278.776C66.6625 278.312 66.9345 277.88 67.5745 277.88H71.9105V277.176H67.2225C66.4545 277.176 66.0545 276.824 66.0545 276.152C66.0545 275.496 66.4385 275.112 67.2225 275.112H79.8625C80.6465 275.112 81.0305 275.496 81.0305 276.152C81.0305 276.824 80.6305 277.176 79.8625 277.176H75.1745V277.88H78.5825C79.9425 277.88 80.3745 278.392 80.3745 279.368V281.848H70.2785C70.0545 281.848 69.9425 281.96 69.9425 282.136C69.9425 282.296 70.0545 282.408 70.2785 282.408ZM100.667 273.192H101.163C102.139 273.192 102.427 273.944 102.427 274.584C102.427 275.24 102.123 275.976 101.163 275.976H100.667V280.536H97.4669V270.776C97.4669 269.736 98.2189 269.192 99.0669 269.192C99.9149 269.192 100.667 269.736 100.667 270.776V273.192ZM95.2269 272.216H88.0589C87.2749 272.216 86.8269 271.576 86.8269 270.952C86.8269 270.328 87.2109 269.672 88.0589 269.672H95.2269C96.0749 269.672 96.4589 270.328 96.4589 270.952C96.4589 271.576 96.0109 272.216 95.2269 272.216ZM95.7869 278.056H87.8669C87.0829 278.056 86.6509 277.496 86.6509 276.872C86.6509 276.248 87.0189 275.704 87.8669 275.704H88.0909V273.96C88.0909 273.224 88.6509 272.76 89.5789 272.76C90.4909 272.76 91.0189 273.24 91.0189 273.96V275.704H92.3469V273.96C92.3469 273.224 92.8749 272.76 93.8029 272.76C94.7149 272.76 95.2909 273.24 95.2909 273.96V275.704H95.7869C96.6349 275.704 97.0029 276.248 97.0029 276.872C97.0029 277.496 96.5709 278.056 95.7869 278.056ZM91.4189 281.752H99.8509C100.811 281.752 101.179 282.328 101.179 282.968C101.179 283.624 100.795 284.216 99.8509 284.216H90.0589C88.2669 284.216 87.7869 283.592 87.7869 281.88V280.28C87.7869 279.24 88.5389 278.744 89.4349 278.744C90.3309 278.744 91.0349 279.256 91.0349 280.28V281.4C91.0349 281.704 91.1149 281.752 91.4189 281.752ZM115.915 269.192C116.763 269.192 117.307 269.736 117.307 270.568V284.216H114.507V277.656H113.707V284.216H110.907V270.568C110.907 269.736 111.467 269.192 112.315 269.192C113.163 269.192 113.707 269.736 113.707 270.568V275H114.507V270.568C114.507 269.736 115.067 269.192 115.915 269.192ZM105.179 269.72H107.579C109.547 269.72 109.931 270.344 109.931 272.36V283.608H105.179C103.211 283.608 102.827 282.984 102.827 280.968V272.36C102.827 270.344 103.211 269.72 105.179 269.72ZM106.203 281.192H107.083V272.664C107.083 272.344 107.003 272.136 106.651 272.136H106.091C105.739 272.136 105.675 272.344 105.675 272.664V280.648C105.675 281 105.787 281.192 106.203 281.192ZM132.831 269.192C133.679 269.192 134.191 269.736 134.191 270.536V284.216H131.471V277.784H129.631C128.751 277.784 128.207 277.24 128.207 276.424C128.207 275.624 128.735 275.048 129.631 275.048H131.471V270.536C131.471 269.736 131.983 269.192 132.831 269.192ZM136.399 269.192C137.247 269.192 137.791 269.736 137.791 270.568V284.216H134.991V270.568C134.991 269.736 135.551 269.192 136.399 269.192ZM126.991 280.904H129.567C130.495 280.904 130.767 281.64 130.767 282.248C130.767 282.872 130.479 283.576 129.567 283.576H125.823C123.743 283.576 123.359 283.08 123.359 281.08V272.232C123.359 270.232 123.743 269.752 125.823 269.752H129.199C130.127 269.752 130.431 270.488 130.431 271.096C130.431 271.72 130.111 272.456 129.199 272.456H126.991C126.703 272.456 126.575 272.552 126.575 272.92V280.44C126.575 280.808 126.703 280.904 126.991 280.904ZM153.551 284.216H150.351V270.776C150.351 269.736 151.103 269.192 151.951 269.192C152.799 269.192 153.551 269.736 153.551 270.776V284.216ZM139.439 279.608V273.736C139.439 270.968 141.359 269.448 143.983 269.448C146.607 269.448 148.543 270.952 148.543 273.736V279.608C148.543 282.408 146.607 283.912 143.999 283.912C141.375 283.912 139.439 282.408 139.439 279.608ZM142.559 273.624V279.72C142.559 280.776 143.247 281.288 143.983 281.288C144.719 281.288 145.439 280.776 145.439 279.72V273.624C145.439 272.6 144.719 272.056 143.983 272.072C143.247 272.088 142.559 272.616 142.559 273.624ZM167.951 269.192C168.799 269.192 169.551 269.736 169.551 270.776V284.216H166.351V277.864H165.311C164.431 277.864 163.887 277.32 163.887 276.504C163.887 275.704 164.415 275.128 165.311 275.128H166.351V270.776C166.351 269.736 167.103 269.192 167.951 269.192ZM159.087 280.904H163.887C164.815 280.904 165.087 281.64 165.087 282.248C165.087 282.872 164.799 283.576 163.887 283.576H157.887C155.903 283.576 155.519 283.08 155.519 281.176V272.136C155.519 270.232 155.903 269.752 157.887 269.752H162.991C163.919 269.752 164.191 270.488 164.191 271.096C164.191 271.72 163.903 272.456 162.991 272.456H159.087C158.799 272.456 158.671 272.552 158.671 272.92V275.256H162.047C162.975 275.256 163.327 275.912 163.327 276.584C163.327 277.24 162.959 277.896 162.047 277.896H158.671V280.44C158.671 280.808 158.799 280.904 159.087 280.904ZM184.655 275.288H173.759C172.319 275.288 171.583 274.552 171.583 273.464V273.336C171.583 272.216 172.303 271.608 173.759 271.608H181.871V271.432C181.871 271.224 181.807 271.16 181.551 271.16H172.623C172.031 271.16 171.727 270.712 171.727 270.28C171.727 269.848 171.999 269.368 172.623 269.368H183.407C184.735 269.368 185.167 269.864 185.167 270.76V273.064H175.343C175.103 273.064 175.007 273.128 175.007 273.288C175.007 273.448 175.103 273.512 175.343 273.512H184.655C185.295 273.512 185.535 273.96 185.535 274.424C185.535 274.824 185.295 275.288 184.655 275.288ZM172.191 275.752H184.831C185.615 275.752 185.999 276.136 185.999 276.792C185.999 277.464 185.599 277.816 184.831 277.816H172.191C171.423 277.816 171.023 277.464 171.023 276.792C171.023 276.136 171.407 275.752 172.191 275.752ZM184.895 284.216H173.487C172.111 284.216 171.471 283.384 171.471 282.344V282.296C171.471 281.256 172.095 280.504 173.487 280.504H182.047V280.216C182.047 280.072 181.983 280.008 181.807 280.008H172.543C171.951 280.008 171.631 279.608 171.631 279.144C171.631 278.68 171.903 278.28 172.543 278.28H183.551C184.911 278.28 185.343 278.792 185.343 279.768V281.976H175.151C174.991 281.976 174.911 282.104 174.911 282.232C174.911 282.344 174.991 282.472 175.151 282.472H184.895C185.551 282.472 185.791 282.888 185.791 283.352C185.791 283.816 185.567 284.216 184.895 284.216ZM206.036 284.216H202.836V270.776C202.836 269.736 203.588 269.192 204.436 269.192C205.284 269.192 206.036 269.736 206.036 270.776V284.216ZM192.964 280.92C195.54 280.648 197.444 279.544 197.444 275.752V272.952C197.444 272.728 197.3 272.552 197.044 272.552H193.348C192.388 272.552 191.924 271.864 191.924 271.192C191.924 270.536 192.372 269.8 193.348 269.8H198.148C199.908 269.8 200.596 270.616 200.596 272.088V275.768C200.596 281.288 197.236 283.432 193.316 283.576C192.468 283.624 191.684 283.144 191.732 282.2C191.764 281.528 192.164 281.016 192.964 280.92ZM221.636 273.192H222.132C223.108 273.192 223.396 273.944 223.396 274.584C223.396 275.24 223.092 275.976 222.132 275.976H221.636V280.536H218.436V270.776C218.436 269.736 219.188 269.192 220.036 269.192C220.884 269.192 221.636 269.736 221.636 270.776V273.192ZM216.852 271V277.928H210.084C208.484 277.928 207.972 277.288 207.972 275.88V271C207.972 270.04 208.548 269.56 209.476 269.56C210.388 269.56 210.916 270.056 210.916 271V271.464H213.94V271C213.94 270.04 214.484 269.56 215.396 269.56C216.324 269.56 216.852 270.056 216.852 271ZM213.924 275.624V273.688H210.916V275.208C210.916 275.576 210.996 275.624 211.364 275.624H213.924ZM212.388 281.752H220.82C221.78 281.752 222.148 282.328 222.148 282.968C222.148 283.624 221.764 284.216 220.82 284.216H211.028C209.236 284.216 208.756 283.592 208.756 281.88V280.28C208.756 279.24 209.508 278.744 210.404 278.744C211.3 278.744 212.004 279.256 212.004 280.28V281.4C212.004 281.704 212.084 281.752 212.388 281.752ZM223.972 274.232V273.832C223.972 271.608 225.604 269.592 228.308 269.592H233.668C236.372 269.592 238.02 271.608 238.02 273.832V274.232C238.02 276.456 236.372 278.472 233.668 278.472H228.308C225.604 278.472 223.972 276.456 223.972 274.232ZM234.692 274.264V273.8C234.692 272.888 233.924 272.2 232.836 272.2H229.14C228.052 272.2 227.3 272.888 227.3 273.8V274.264C227.3 275.176 228.052 275.864 229.14 275.864H232.836C233.924 275.864 234.692 275.176 234.692 274.264ZM224.884 281.192H237.108C238.1 281.192 238.484 281.896 238.484 282.552C238.484 283.224 238.084 283.896 237.108 283.896H224.884C223.908 283.896 223.508 283.224 223.508 282.552C223.508 281.896 223.892 281.192 224.884 281.192ZM248.628 281.272H253.14C254.1 281.272 254.484 281.928 254.484 282.584C254.484 283.272 254.084 283.896 253.14 283.896H240.852C239.908 283.896 239.508 283.272 239.508 282.584C239.508 281.928 239.892 281.272 240.852 281.272H245.364V279.048H243.252C241.172 279.048 240.084 277.96 240.084 276.232V275.944C240.084 274.232 241.172 273.176 243.252 273.176H250.244V272.664C250.244 272.456 250.18 272.216 249.812 272.216H241.476C240.724 272.216 240.26 271.592 240.26 270.936C240.26 270.312 240.724 269.672 241.476 269.672H250.772C252.948 269.672 253.572 270.664 253.572 272.168V275.592H244.084C243.716 275.592 243.54 275.768 243.54 276.072C243.54 276.408 243.716 276.552 244.084 276.552H252.772C253.652 276.552 253.988 277.224 253.988 277.816C253.988 278.408 253.636 279.048 252.772 279.048H248.628V281.272ZM59.1745 319.272H63.6865C64.6465 319.272 65.0305 319.928 65.0305 320.584C65.0305 321.272 64.6305 321.896 63.6865 321.896H51.3985C50.4545 321.896 50.0545 321.272 50.0545 320.584C50.0545 319.928 50.4385 319.272 51.3985 319.272H55.9105V316.52H53.1425C51.2225 316.52 50.8545 315.912 50.8545 314.088V308.904C50.8545 307.864 51.6545 307.48 52.5025 307.48C53.3025 307.48 54.1345 307.928 54.1345 308.936V309.592H60.9345V308.904C60.9345 307.864 61.7185 307.48 62.5665 307.48C63.3825 307.48 64.1985 307.88 64.1985 308.904V316.52H59.1745V319.272ZM54.1345 312.072V313.464C54.1345 313.784 54.2465 313.944 54.6305 313.944H60.9345V312.072H54.1345ZM80.1025 312.792H80.6785C81.6545 312.792 81.9425 313.544 81.9425 314.184C81.9425 314.84 81.6385 315.576 80.6785 315.576H80.1025V322.216H76.9025V308.776C76.9025 307.736 77.6545 307.192 78.5025 307.192C79.3505 307.192 80.1025 307.736 80.1025 308.776V312.792ZM70.1825 318.904H74.8385C75.7665 318.904 76.0385 319.64 76.0385 320.248C76.0385 320.872 75.7505 321.576 74.8385 321.576H69.0145C66.9345 321.576 66.5505 321.08 66.5505 319.08V310.232C66.5505 308.232 66.9345 307.752 69.0145 307.752H74.0705C74.9985 307.752 75.3025 308.488 75.3025 309.096C75.3025 309.72 74.9825 310.456 74.0705 310.456H70.1825C69.8945 310.456 69.7665 310.552 69.7665 310.92V318.44C69.7665 318.808 69.8945 318.904 70.1825 318.904ZM87.2269 312.312V311.592C87.2269 311.256 87.3069 310.952 87.4509 310.696C86.7309 310.664 86.3309 310.2 86.3309 309.56C86.3309 308.888 86.7309 308.456 87.5149 308.456H89.8189C89.8829 307.576 90.4909 307.064 91.4349 307.064C92.3789 307.064 92.9709 307.576 93.0509 308.456H95.3389C96.1229 308.456 96.5389 308.888 96.5389 309.56C96.5389 310.216 96.1389 310.664 95.4189 310.696C95.5469 310.952 95.6269 311.256 95.6269 311.592V312.312C95.6269 314.28 94.0269 315.512 91.4349 315.512C88.8429 315.512 87.2269 314.28 87.2269 312.312ZM100.667 309.912H101.163C102.139 309.912 102.427 310.664 102.427 311.304C102.427 311.96 102.123 312.696 101.163 312.696H100.667V315.576H97.4669V308.776C97.4669 307.736 98.2189 307.192 99.0669 307.192C99.9149 307.192 100.667 307.736 100.667 308.776V309.912ZM92.7309 312.2V311.64C92.7309 310.936 92.2189 310.488 91.4349 310.488C90.6349 310.488 90.1229 310.936 90.1229 311.64V312.2C90.1229 312.888 90.6349 313.336 91.4349 313.336C92.2189 313.336 92.7309 312.888 92.7309 312.2ZM99.1789 316.04C100.123 316.04 100.763 316.504 100.763 317.528V322.216H89.8509C88.1069 322.216 87.6269 321.592 87.6269 320.024V317.528C87.6269 316.488 88.2989 316.04 89.2429 316.04C90.0909 316.04 90.6989 316.424 90.8109 317.24H97.5789C97.6909 316.408 98.3309 316.04 99.1789 316.04ZM91.2109 320.152H97.5629V319.224H90.8269V319.8C90.8269 320.104 90.9069 320.152 91.2109 320.152ZM117.067 322.216H113.867V308.776C113.867 307.736 114.619 307.192 115.467 307.192C116.315 307.192 117.067 307.736 117.067 308.776V322.216ZM111.643 321.544H105.659C103.723 321.544 102.971 320.84 102.971 318.904V315.832C102.971 313.896 103.723 313.224 105.659 313.224H108.619V310.888C108.619 310.68 108.555 310.456 108.219 310.456H104.475C103.515 310.456 103.115 309.784 103.115 309.128C103.115 308.488 103.499 307.784 104.475 307.784H109.099C111.243 307.784 111.819 308.392 111.819 310.152V315.832H106.891C106.347 315.832 106.171 315.96 106.171 316.504V318.248C106.171 318.792 106.347 318.92 106.891 318.92H111.643C112.619 318.92 113.003 319.592 113.003 320.232C113.003 320.888 112.603 321.544 111.643 321.544ZM127.723 311.544C127.723 310.776 128.235 310.248 129.083 310.248H129.867V308.776C129.867 307.736 130.619 307.192 131.467 307.192C132.315 307.192 133.067 307.736 133.067 308.776V315.976H129.867V312.824H129.083C128.251 312.824 127.723 312.328 127.723 311.544ZM120.107 316.024C119.323 316.04 118.667 315.56 118.667 314.76C118.651 314.12 119.003 313.672 119.627 313.544C121.083 313.272 121.899 312.2 121.899 310.808V310.264H119.931C119.179 310.264 118.763 309.576 118.763 309C118.763 308.424 119.115 307.704 119.931 307.704H127.099C127.915 307.704 128.267 308.424 128.267 309C128.267 309.576 127.851 310.264 127.099 310.264H124.907V310.808C124.907 311.016 124.891 311.224 124.875 311.432C127.259 311.576 128.443 312.968 128.363 315.816H125.403C125.515 314.664 124.971 313.768 124.091 313.704C123.179 315.16 121.611 316.008 120.107 316.024ZM120.875 316.632H130.795C132.795 316.632 133.163 317.176 133.163 319.096V322.216H129.931V319.512C129.931 319.272 129.803 319.128 129.547 319.128H120.875C119.995 319.128 119.499 318.632 119.499 317.88C119.499 317.128 119.995 316.632 120.875 316.632ZM149.067 318.536H145.867V308.776C145.867 307.736 146.619 307.192 147.467 307.192C148.315 307.192 149.067 307.736 149.067 308.776V318.536ZM134.955 312.44V311.08C134.955 308.696 136.875 307.448 139.499 307.448C142.123 307.448 144.059 308.68 144.059 311.08V312.44C144.059 314.84 142.123 316.072 139.515 316.072C136.891 316.072 134.955 314.84 134.955 312.44ZM138.075 311.096V312.424C138.075 313.208 138.715 313.688 139.499 313.688C140.283 313.688 140.955 313.208 140.955 312.424V311.096C140.955 310.296 140.283 309.816 139.499 309.832C138.715 309.848 138.075 310.312 138.075 311.096ZM148.171 322.216H138.059C136.267 322.216 135.787 321.592 135.787 319.88V318.2C135.787 317.16 136.539 316.664 137.435 316.664C138.331 316.664 139.035 317.176 139.035 318.2V319.384C139.035 319.688 139.115 319.752 139.419 319.752H148.171C149.131 319.752 149.499 320.328 149.499 320.968C149.499 321.624 149.115 322.216 148.171 322.216ZM169.151 311.192H169.647C170.623 311.192 170.911 311.944 170.911 312.584C170.911 313.24 170.607 313.976 169.647 313.976H169.151V318.536H165.951V308.776C165.951 307.736 166.703 307.192 167.551 307.192C168.399 307.192 169.151 307.736 169.151 308.776V311.192ZM163.711 310.216H156.543C155.759 310.216 155.311 309.576 155.311 308.952C155.311 308.328 155.695 307.672 156.543 307.672H163.711C164.559 307.672 164.943 308.328 164.943 308.952C164.943 309.576 164.495 310.216 163.711 310.216ZM164.271 316.056H156.351C155.567 316.056 155.135 315.496 155.135 314.872C155.135 314.248 155.503 313.704 156.351 313.704H156.575V311.96C156.575 311.224 157.135 310.76 158.063 310.76C158.975 310.76 159.503 311.24 159.503 311.96V313.704H160.831V311.96C160.831 311.224 161.359 310.76 162.287 310.76C163.199 310.76 163.775 311.24 163.775 311.96V313.704H164.271C165.119 313.704 165.487 314.248 165.487 314.872C165.487 315.496 165.055 316.056 164.271 316.056ZM159.903 319.752H168.335C169.295 319.752 169.663 320.328 169.663 320.968C169.663 321.624 169.279 322.216 168.335 322.216H158.543C156.751 322.216 156.271 321.592 156.271 319.88V318.28C156.271 317.24 157.023 316.744 157.919 316.744C158.815 316.744 159.519 317.256 159.519 318.28V319.4C159.519 319.704 159.599 319.752 159.903 319.752ZM184.399 307.192C185.247 307.192 185.791 307.736 185.791 308.568V322.216H182.991V315.656H182.191V322.216H179.391V308.568C179.391 307.736 179.951 307.192 180.799 307.192C181.647 307.192 182.191 307.736 182.191 308.568V313H182.991V308.568C182.991 307.736 183.551 307.192 184.399 307.192ZM173.663 307.72H176.063C178.031 307.72 178.415 308.344 178.415 310.36V321.608H173.663C171.695 321.608 171.311 320.984 171.311 318.968V310.36C171.311 308.344 171.695 307.72 173.663 307.72ZM174.687 319.192H175.567V310.664C175.567 310.344 175.487 310.136 175.135 310.136H174.575C174.223 310.136 174.159 310.344 174.159 310.664V318.648C174.159 319 174.271 319.192 174.687 319.192ZM205.556 312.792H206.132C207.108 312.792 207.396 313.544 207.396 314.184C207.396 314.84 207.092 315.576 206.132 315.576H205.556V322.216H202.356V308.776C202.356 307.736 203.108 307.192 203.956 307.192C204.804 307.192 205.556 307.736 205.556 308.776V312.792ZM193.348 307.768H198.084C199.844 307.768 200.516 308.584 200.516 310.04V313.8C200.516 319.256 197.204 321.384 193.332 321.544C192.468 321.592 191.684 321.112 191.732 320.168C191.764 319.496 192.164 318.984 192.964 318.888C195.492 318.6 197.364 317.528 197.364 313.784V310.92C197.364 310.696 197.22 310.52 196.964 310.52H193.348C192.388 310.52 191.924 309.832 191.924 309.16C191.924 308.504 192.372 307.768 193.348 307.768ZM215.476 313.8C214.212 315.304 211.924 316.04 209.204 315.864C208.452 315.816 207.86 315.288 207.908 314.44C207.956 313.688 208.516 313.288 209.284 313.304C211.94 313.384 213.428 312.408 213.428 310.792V310.488C213.428 310.248 213.3 310.152 213.076 310.152H209.492C208.564 310.152 208.18 309.512 208.18 308.888C208.18 308.264 208.548 307.624 209.492 307.624H214.292C215.588 307.624 216.228 308.056 216.452 308.888H218.836V308.776C218.836 307.736 219.588 307.192 220.436 307.192C221.284 307.192 222.036 307.736 222.036 308.776V315.816H218.836V314.504H216.644C216.068 314.504 215.636 314.248 215.476 313.8ZM216.644 312.248H218.836V311.144H216.532C216.5 311.544 216.42 311.928 216.308 312.28C216.42 312.264 216.532 312.248 216.644 312.248ZM209.86 316.472H219.764C221.764 316.472 222.132 317.016 222.132 318.936V322.216H218.9V319.384C218.9 319.144 218.772 319 218.516 319H209.86C208.964 319 208.468 318.488 208.468 317.736C208.468 316.984 208.964 316.472 209.86 316.472ZM242.248 313.64H230.632C229.016 313.64 228.68 313.032 228.68 311.72V308.664C228.68 307.624 229.48 307.24 230.328 307.24C231.048 307.24 231.784 307.592 231.928 308.392H239C239.128 307.56 239.848 307.24 240.616 307.24C241.432 307.24 242.248 307.64 242.248 308.664V313.64ZM232.456 311.496H238.984V310.456H231.96V311.016C231.96 311.336 232.072 311.496 232.456 311.496ZM229.32 314.392H241.64C242.584 314.392 242.968 315.016 242.968 315.672C242.968 316.344 242.568 316.936 241.64 316.936H237.272V318.856H234.008V316.936H229.32C228.392 316.936 227.992 316.344 227.992 315.672C227.992 315.016 228.376 314.392 229.32 314.392ZM232.504 319.768H241.128C242.104 319.768 242.472 320.344 242.472 320.984C242.472 321.64 242.088 322.216 241.128 322.216H231.08C229.272 322.216 228.792 321.624 228.792 319.96V318.952C228.792 317.896 229.56 317.496 230.456 317.496C231.352 317.496 232.072 317.912 232.072 318.952V319.4C232.072 319.72 232.152 319.768 232.504 319.768ZM255.32 311.816H254.168C253.32 311.816 252.776 311.304 252.776 310.504C252.776 309.72 253.304 309.16 254.168 309.16H255.32V308.776C255.32 307.736 256.072 307.192 256.92 307.192C257.768 307.192 258.52 307.736 258.52 308.776V315.816H255.32V311.816ZM249.416 313C248.376 314.744 246.696 315.656 245.384 315.656C244.536 315.656 243.944 315.192 243.944 314.296C243.944 313.688 244.296 313.24 244.936 313.016C246.36 312.456 247.128 311.464 247.192 309.336L247.208 308.728C247.24 307.832 247.96 307.336 248.84 307.352C249.704 307.368 250.376 307.912 250.376 308.792V309.352C250.376 309.8 250.344 310.216 250.28 310.616C252.6 310.872 253.976 312.36 253.848 315.448H250.776C250.888 313.992 250.392 313.208 249.416 313ZM246.344 316.472H256.248C258.248 316.472 258.616 317.016 258.616 318.936V322.216H255.384V319.384C255.384 319.144 255.256 319 255 319H246.344C245.448 319 244.952 318.488 244.952 317.736C244.952 316.984 245.448 316.472 246.344 316.472Z" fill="white"/>
</svg>
