<svg width="332" height="478" viewBox="0 0 332 478" fill="none" xmlns="http://www.w3.org/2000/svg">
<rect x="23.5" y="22" width="308" height="456" rx="16" fill="#5A72CC" fill-opacity="0.15"/>
<path d="M0.5 16C0.5 7.16344 7.66344 0 16.5 0H292.5C301.337 0 308.5 7.16344 308.5 16V440C308.5 448.837 301.337 456 292.5 456H16.5C7.66345 456 0.5 448.837 0.5 440V16Z" fill="#1F41BB"/>
<path d="M220.27 123H158.25L197.714 175.622L220.27 123ZM88.7297 123L111.286 175.622L150.75 123H88.7297ZM154.5 143.002L124.5 183H184.5L154.5 143.002ZM232.758 131.934L210.872 183H263.25L232.758 131.934ZM76.2422 131.934L45.2812 183H98.1281L76.2422 131.934ZM103.256 198H45.75L150.188 333H150.436L103.256 198ZM205.744 198L158.564 333H158.813L263.25 198H205.744ZM188.902 198H120.098L154.5 295.5L188.902 198Z" fill="#E2E4F1" fill-opacity="0.3"/>
<path d="M39.8882 113.092C37.6482 115.584 33.6722 116.788 28.9402 116.452C27.6242 116.368 26.5882 115.472 26.6722 113.988C26.7562 112.672 27.7362 111.972 29.0802 112.028C33.8962 112.224 36.3322 110.6 36.3322 108.024V107.52C36.3322 107.156 36.1362 106.988 35.7722 106.988H29.4442C27.8202 106.988 27.1482 105.868 27.1482 104.776C27.1482 103.684 27.7922 102.592 29.4442 102.592H37.9002C40.0002 102.592 41.1202 103.236 41.5682 104.524H45.7962C45.8242 102.76 47.1402 101.836 48.5962 101.836C50.0802 101.836 51.3962 102.788 51.3962 104.608V116.648H45.7962V114.492H41.9602C40.8962 114.492 40.1122 113.988 39.8882 113.092ZM41.9602 110.544H45.7962V108.472H41.7642C41.7082 109.228 41.5682 109.956 41.3442 110.6C41.5402 110.572 41.7362 110.544 41.9602 110.544ZM33.7562 117.516H45.6282C49.6882 117.516 51.7042 119.7 51.7042 122.864C51.7042 126.028 49.6882 128.212 45.6282 128.212H33.7562C29.6682 128.212 27.6802 125.944 27.6802 122.864C27.6802 119.756 29.6682 117.516 33.7562 117.516ZM35.1562 124.404H44.2562C45.4882 124.404 46.0202 123.704 46.0202 122.864C46.0202 122.024 45.4882 121.324 44.2562 121.324H35.1562C33.9242 121.324 33.3642 122.024 33.3642 122.864C33.3642 123.704 33.9242 124.404 35.1562 124.404ZM75.0562 111.608H73.6562V116.648H68.8962V104.188C68.8962 102.788 69.7922 101.836 71.2762 101.836C72.7602 101.836 73.6562 102.788 73.6562 104.188V107.24H75.0562V104.188C75.0562 102.788 75.9522 101.836 77.4362 101.836C78.9202 101.836 79.8162 102.788 79.8162 104.188V116.648H75.0562V111.608ZM62.0362 113.484C60.7482 115.612 58.6762 116.984 56.2962 117.012C54.8962 117.012 54.0002 116.172 54.0002 114.884C54.0002 113.876 54.5882 113.232 55.6242 112.84C57.8362 112.084 58.5362 110.404 58.5362 108.024V107.184H56.1282C54.8122 107.184 54.0842 106.008 54.0842 105C54.0842 103.992 54.7002 102.732 56.1282 102.732H65.8722C67.3002 102.732 67.9162 103.992 67.9162 105C67.9162 106.008 67.1882 107.184 65.8722 107.184H63.5202V108.024C63.5202 108.5 63.4922 108.948 63.4362 109.424C66.6282 109.928 68.3642 112.168 68.0002 116.648H63.1002C63.3802 115.136 63.0722 114.1 62.0362 113.484ZM61.5602 117.656H73.9642C77.9962 117.656 79.9842 119.812 79.9842 122.92C79.9842 126.056 77.9962 128.212 73.9642 128.212H61.5602C57.4722 128.212 55.5402 126 55.5402 122.92C55.5402 119.868 57.4722 117.656 61.5602 117.656ZM62.9322 124.404H72.5922C73.7682 124.404 74.3002 123.76 74.3002 122.92C74.3002 122.108 73.7682 121.464 72.5922 121.464H62.9322C61.7562 121.464 61.2242 122.108 61.2242 122.92C61.2242 123.76 61.7562 124.404 62.9322 124.404ZM99.7802 108.864H101.796V107.632H99.7802C98.4922 107.632 97.6242 106.904 97.6242 105.672C97.6242 104.468 98.4642 103.684 99.7802 103.684H101.936C102.3 102.48 103.392 101.836 104.596 101.836C106.08 101.836 107.396 102.788 107.396 104.608V117.488H101.796V112.812H99.7802C98.4922 112.812 97.6242 112.084 97.6242 110.852C97.6242 109.648 98.4642 108.864 99.7802 108.864ZM98.0162 117.32H87.1802C84.2962 117.32 82.5882 115.444 82.5882 112.84V112.364C82.5882 109.732 84.2682 108.108 86.9002 108.108H91.1842V107.044C91.1842 106.624 91.0162 106.512 90.5402 106.512H84.4922C83.2042 106.512 82.6162 105.476 82.6162 104.524C82.6162 103.516 83.2322 102.508 84.4922 102.508H93.0882C95.6082 102.508 96.7842 103.824 96.7842 105.924V111.748H89.1402C88.6642 111.748 88.2722 112 88.2722 112.532V112.616C88.2722 113.148 88.6642 113.344 89.1402 113.344H98.0162C99.2762 113.344 99.8642 114.38 99.8642 115.36C99.8642 116.312 99.3322 117.32 98.0162 117.32ZM86.0602 118.496H103.42C106.92 118.496 107.564 119.448 107.564 122.808V128.128H101.908V123.508C101.908 123.088 101.684 122.836 101.236 122.836H86.0602C84.5202 122.836 83.6522 121.996 83.6522 120.68C83.6522 119.364 84.5202 118.496 86.0602 118.496ZM110.924 106.652V106.54C110.924 103.74 112.744 102.116 116.216 102.116H129.908C133.38 102.116 135.228 103.74 135.228 106.54V106.652C135.228 109.452 133.38 111.076 129.908 111.076H116.216C112.744 111.076 110.924 109.452 110.924 106.652ZM129.544 106.652V106.568C129.544 106.092 129.208 105.756 128.48 105.756H117.672C116.916 105.756 116.608 106.092 116.608 106.568V106.652C116.608 107.128 116.916 107.436 117.672 107.436H128.48C129.208 107.436 129.544 107.128 129.544 106.652ZM112.1 112.056H134.052C135.508 112.056 136.18 112.868 136.18 114.016C136.18 115.192 135.48 115.948 134.052 115.948H112.1C110.672 115.948 109.972 115.192 109.972 114.016C109.972 112.868 110.644 112.056 112.1 112.056ZM134.248 128.128H114.284C111.876 128.128 110.756 126.532 110.756 124.656V124.432C110.756 122.528 111.848 121.156 114.284 121.156H129.264V120.596C129.264 120.344 129.124 120.176 128.76 120.176H112.632C111.596 120.176 111.036 119.42 111.036 118.608C111.036 117.796 111.512 117.04 112.632 117.04H131.896C134.276 117.04 135.032 117.936 135.032 119.644V123.984H117.364C116.972 123.984 116.776 124.18 116.776 124.488C116.776 124.768 116.972 124.964 117.364 124.964H134.248C135.396 124.964 135.816 125.748 135.816 126.56C135.816 127.372 135.424 128.128 134.248 128.128ZM171.244 128.128H165.644V104.608C165.644 102.788 166.96 101.836 168.444 101.836C169.928 101.836 171.244 102.788 171.244 104.608V128.128ZM161.752 127.008H151C147.36 127.008 146.688 126.14 146.688 122.64V107.156C146.688 103.656 147.36 102.816 151 102.816H159.988C161.612 102.816 162.144 104.104 162.144 105.168C162.144 106.26 161.584 107.548 159.988 107.548H153.044C152.54 107.548 152.316 107.716 152.316 108.36V121.52C152.316 122.164 152.54 122.332 153.044 122.332H161.752C163.376 122.332 163.852 123.62 163.852 124.684C163.852 125.776 163.348 127.008 161.752 127.008ZM198.404 111.636H199.412C201.12 111.636 201.624 112.952 201.624 114.072C201.624 115.22 201.092 116.508 199.412 116.508H198.404V128.128H192.804V104.608C192.804 102.788 194.12 101.836 195.604 101.836C197.088 101.836 198.404 102.788 198.404 104.608V111.636ZM188.492 107.688H184.852V111.524C184.852 112.504 184.796 113.428 184.684 114.324C188.52 115.668 191.096 118.776 190.76 126.532H185.412C185.804 122.752 185.104 120.484 183.48 119.336C181.576 124.236 178.104 126.756 175.864 126.756C174.212 126.756 173.288 125.776 173.288 124.516C173.288 123.592 173.68 122.976 174.52 122.416C177.74 120.288 179.476 116.844 179.476 110.768V107.688H175.808C174.128 107.688 173.428 106.456 173.428 105.308C173.428 104.188 174.1 102.928 175.808 102.928H188.492C190.2 102.928 190.816 104.188 190.816 105.308C190.816 106.456 190.172 107.688 188.492 107.688ZM227.244 121.688H221.644V104.608C221.644 102.788 222.96 101.836 224.444 101.836C225.928 101.836 227.244 102.788 227.244 104.608V121.688ZM202.548 111.02V108.64C202.548 104.468 205.908 102.284 210.5 102.284C215.092 102.284 218.48 104.44 218.48 108.64V111.02C218.48 115.22 215.092 117.376 210.528 117.376C205.936 117.376 202.548 115.22 202.548 111.02ZM208.008 108.668V110.992C208.008 112.364 209.128 113.204 210.5 113.204C211.872 113.204 213.048 112.364 213.048 110.992V108.668C213.048 107.268 211.872 106.428 210.5 106.456C209.128 106.484 208.008 107.296 208.008 108.668ZM225.676 128.128H207.98C204.844 128.128 204.004 127.036 204.004 124.04V121.1C204.004 119.28 205.32 118.412 206.888 118.412C208.456 118.412 209.688 119.308 209.688 121.1V123.172C209.688 123.704 209.828 123.816 210.36 123.816H225.676C227.356 123.816 228 124.824 228 125.944C228 127.092 227.328 128.128 225.676 128.128ZM241.132 104.804H245.08C246.452 104.804 247.18 105.812 247.18 106.988C247.18 108.136 246.452 109.172 245.164 109.2C245.444 109.9 245.612 110.684 245.612 111.58V120.456C245.612 125.328 242.588 127.596 238.304 127.596C234.048 127.596 230.996 125.328 230.996 120.456V111.58C230.996 110.684 231.164 109.9 231.444 109.2C230.184 109.144 229.456 108.136 229.456 106.988C229.456 105.812 230.156 104.804 231.528 104.804H235.476V104.524C235.476 102.788 236.54 101.752 238.304 101.752C240.068 101.752 241.132 102.788 241.132 104.524V104.804ZM254.404 111.636H255.412C257.12 111.636 257.624 112.952 257.624 114.072C257.624 115.22 257.092 116.508 255.412 116.508H254.404V128.128H248.804V104.608C248.804 102.788 250.12 101.836 251.604 101.836C253.088 101.836 254.404 102.788 254.404 104.608V111.636ZM240.432 120.652V111.272C240.432 109.816 239.648 108.948 238.304 108.948C236.96 108.948 236.176 109.816 236.176 111.272V120.652C236.176 122.08 236.96 123.088 238.304 123.088C239.648 123.088 240.432 122.08 240.432 120.652ZM265.632 107.52H280.696C282.32 107.52 282.936 108.584 282.936 109.704C282.936 110.852 282.292 111.972 280.696 111.972H262.972C260.06 111.972 259.108 110.796 259.108 108.416V104.86C259.108 102.984 260.48 102.144 261.992 102.144C263.532 102.144 264.82 103.012 264.82 104.86V106.932C264.82 107.38 264.988 107.52 265.632 107.52ZM260.172 113.596H281.676C283.356 113.596 284.028 114.744 284.028 115.892C284.028 117.068 283.328 118.188 281.676 118.188H260.172C258.52 118.188 257.82 117.068 257.82 115.892C257.82 114.744 258.492 113.596 260.172 113.596ZM280.808 128.128H263.224C260.06 128.128 259.22 127.092 259.22 124.068V121.912C259.22 120.008 260.564 119.308 262.132 119.308C263.7 119.308 264.96 120.036 264.96 121.912V123.088C264.96 123.704 265.1 123.788 265.716 123.788H280.808C282.516 123.788 283.16 124.824 283.16 125.944C283.16 127.092 282.488 128.128 280.808 128.128ZM48.8131 141.504V161.312C48.8131 162.016 49.0051 162.176 49.7091 162.176H51.7891C53.5171 162.176 54.1891 163.52 54.1891 164.736C54.1891 165.952 53.5171 167.392 51.7891 167.392H47.7251C44.1411 167.392 43.0851 166.112 43.0851 162.688V140.128C43.0851 136.704 44.1411 135.424 47.7251 135.424H51.7891C53.5171 135.424 54.1891 136.864 54.1891 138.08C54.1891 139.296 53.5171 140.64 51.7891 140.64H49.7091C49.0051 140.64 48.8131 140.8 48.8131 141.504ZM83.8276 155.36H61.7796C57.9076 155.36 57.1396 154.144 57.1396 150.432V139.808C57.1396 137.728 58.7396 136.96 60.4356 136.96C62.0356 136.96 63.6996 137.856 63.6996 139.872V141.312H77.2996V139.808C77.2996 137.728 78.8676 136.96 80.5636 136.96C82.1956 136.96 83.8276 137.76 83.8276 139.808V155.36ZM77.2996 150.176V146.304H63.6996V149.216C63.6996 149.856 63.9236 150.176 64.6916 150.176H77.2996ZM58.2916 160.384H82.7396C84.7236 160.384 85.4916 161.792 85.4916 163.104C85.4916 164.448 84.6916 165.792 82.7396 165.792H58.2916C56.3396 165.792 55.5396 164.448 55.5396 163.104C55.5396 161.792 56.3076 160.384 58.2916 160.384ZM111.476 149.472H110.036V158.432H104.436V139.136C104.436 137.472 105.556 136.384 107.252 136.384C108.948 136.384 110.036 137.472 110.036 139.136V144.48H111.476V139.136C111.476 137.472 112.596 136.384 114.292 136.384C115.988 136.384 117.076 137.472 117.076 139.136V158.432H111.476V149.472ZM101.524 154.72H93.3636C90.1316 154.72 88.0836 152.48 88.0836 149.44V148.896C88.0836 145.824 90.0996 143.904 93.0436 143.904H96.8516V142.624C96.8516 142.112 96.6596 141.984 96.0836 141.984H90.5476C89.0436 141.984 88.3716 140.768 88.3716 139.68C88.3716 138.528 89.0756 137.312 90.5476 137.312H98.4836C101.236 137.312 102.708 138.848 102.708 141.28V148.16H95.5076C94.9636 148.16 94.4836 148.448 94.4836 149.088V149.216C94.4836 149.824 94.9636 150.08 95.5076 150.08H101.524C102.996 150.08 103.668 151.296 103.668 152.416C103.668 153.536 103.06 154.72 101.524 154.72ZM97.0756 161.504H115.156C117.044 161.504 117.78 162.688 117.78 163.968C117.78 165.28 117.012 166.432 115.156 166.432H94.4196C90.8356 166.432 89.8756 165.184 89.8756 161.76V158.976C89.8756 156.96 91.3796 155.968 93.1716 155.968C94.9636 155.968 96.3716 156.992 96.3716 158.976V160.864C96.3716 161.408 96.5316 161.504 97.0756 161.504ZM148.596 152.992H142.196V139.552C142.196 137.472 143.7 136.384 145.396 136.384C147.092 136.384 148.596 137.472 148.596 139.552V152.992ZM137.972 152.192H124.116C121.396 152.192 120.532 151.136 120.532 148.672V140.832C120.532 138.368 121.396 137.344 124.116 137.344H136.276C138.132 137.344 138.676 138.624 138.676 139.808C138.676 140.992 138.1 142.304 136.276 142.304H127.284C126.836 142.304 126.644 142.496 126.644 142.912V146.688C126.644 147.104 126.836 147.296 127.284 147.296H137.972C139.828 147.296 140.308 148.608 140.308 149.76C140.308 150.976 139.796 152.192 137.972 152.192ZM121.492 160.256C121.492 156.64 123.828 153.984 128.532 153.984H141.908C146.548 153.984 148.948 156.576 148.948 160.256C148.948 163.936 146.548 166.528 141.908 166.528H128.532C123.828 166.528 121.492 163.872 121.492 160.256ZM127.988 160.256C127.988 161.28 128.66 162.112 130.164 162.112H140.276C141.78 162.112 142.452 161.28 142.452 160.256C142.452 159.232 141.78 158.368 140.276 158.368H130.164C128.66 158.368 127.988 159.232 127.988 160.256ZM186.364 136.384C188.06 136.384 189.564 137.472 189.564 139.552V166.432H183.164V151.008H179.484C177.724 151.008 176.636 149.92 176.636 148.288C176.636 146.688 177.692 145.536 179.484 145.536H183.164V139.552C183.164 137.472 184.668 136.384 186.364 136.384ZM172.7 149.28C178.332 151.424 180.796 155.744 180.22 164.608H174.076C174.684 159.776 173.948 156.768 171.42 155.04C170.044 159.168 167.804 162.144 164.764 164.096C163.1 165.248 161.02 164.992 160.156 163.872C159.292 162.88 159.228 161.024 160.636 160C165.436 156.576 166.748 151.872 166.748 142.944V140.448C166.748 138.4 168.252 137.344 169.948 137.344C171.58 137.344 173.084 138.496 173.084 140.448V142.912C173.084 145.216 172.956 147.328 172.7 149.28ZM218.364 136.384C220.06 136.384 221.564 137.472 221.564 139.552V166.432H215.164V139.552C215.164 137.472 216.668 136.384 218.364 136.384ZM208.636 137.44C210.492 137.44 211.676 138.432 211.676 140.576V165.056H198.076C194.364 165.056 193.436 163.776 193.436 160.256V140.576C193.436 138.4 194.748 137.44 196.604 137.44C198.428 137.44 199.612 138.432 199.612 140.576V145.504H205.564V140.576C205.564 138.4 206.812 137.44 208.636 137.44ZM200.508 159.776H205.564V150.72H199.612V158.944C199.612 159.68 199.772 159.776 200.508 159.776ZM228.06 155.2C226.492 155.2 225.18 154.304 225.02 152.736C224.86 151.2 225.692 149.952 227.324 149.6C231.548 148.672 235.42 145.088 236.092 139.712C236.348 137.696 237.756 136.832 239.484 136.832C241.404 136.832 242.78 138.112 242.716 140.224C242.684 141.216 242.524 142.208 242.3 143.168C247.676 143.296 253.212 147.04 253.82 155.2H247.324C246.748 150.88 243.612 148.256 239.804 148.352C236.892 152.384 232.284 155.2 228.06 155.2ZM227.26 160.384H251.708C253.692 160.384 254.46 161.792 254.46 163.104C254.46 164.448 253.66 165.792 251.708 165.792H227.26C225.308 165.792 224.508 164.448 224.508 163.104C224.508 161.792 225.276 160.384 227.26 160.384ZM261.18 161.312V141.504C261.18 140.8 260.988 140.64 260.284 140.64H258.204C256.476 140.64 255.804 139.296 255.804 138.08C255.804 136.864 256.476 135.424 258.204 135.424H262.268C265.852 135.424 266.908 136.704 266.908 140.128V162.688C266.908 166.112 265.852 167.392 262.268 167.392H258.204C256.476 167.392 255.804 165.952 255.804 164.736C255.804 163.52 256.476 162.176 258.204 162.176H260.284C260.988 162.176 261.18 162.016 261.18 161.312Z" fill="white"/>
<path d="M22.724 234.616C22.1053 234.616 21.5347 234.467 21.012 234.168C20.5 233.859 20.0893 233.448 19.78 232.936C19.4707 232.413 19.316 231.837 19.316 231.208C19.316 230.568 19.4707 229.992 19.78 229.48C20.0893 228.968 20.5 228.563 21.012 228.264C21.5347 227.955 22.1053 227.8 22.724 227.8C23.3533 227.8 23.924 227.955 24.436 228.264C24.948 228.573 25.3587 228.984 25.668 229.496C25.9773 230.008 26.132 230.579 26.132 231.208C26.132 231.837 25.9773 232.413 25.668 232.936C25.3587 233.448 24.948 233.859 24.436 234.168C23.924 234.467 23.3533 234.616 22.724 234.616ZM42.7815 223.768H44.1095V238.248H42.7815V223.768ZM38.5415 225.336H39.8535C39.8535 226.381 39.7255 227.389 39.4695 228.36C39.2242 229.331 38.8348 230.253 38.3015 231.128C37.7682 231.992 37.0748 232.797 36.2215 233.544C35.3682 234.291 34.3335 234.957 33.1175 235.544L32.4135 234.472C33.8108 233.8 34.9628 233.016 35.8695 232.12C36.7762 231.224 37.4482 230.227 37.8855 229.128C38.3228 228.019 38.5415 226.824 38.5415 225.544V225.336ZM33.0855 225.336H39.1015V226.408H33.0855V225.336ZM54.0603 227.496H58.0123V228.6H54.0603V227.496ZM49.1963 233.112H58.8603V238.264H57.5323V234.184H49.1963V233.112ZM57.5323 223.768H58.8603V232.296H57.5323V223.768ZM50.9083 224.584C51.6123 224.584 52.2416 224.733 52.7963 225.032C53.3616 225.32 53.8043 225.731 54.1243 226.264C54.4549 226.787 54.6203 227.384 54.6203 228.056C54.6203 228.739 54.4549 229.341 54.1243 229.864C53.8043 230.387 53.3616 230.797 52.7963 231.096C52.2416 231.395 51.6123 231.544 50.9083 231.544C50.1936 231.544 49.5536 231.395 48.9883 231.096C48.4336 230.797 47.9909 230.387 47.6603 229.864C47.3403 229.341 47.1803 228.739 47.1803 228.056C47.1803 227.384 47.3403 226.787 47.6603 226.264C47.9909 225.731 48.4336 225.32 48.9883 225.032C49.5536 224.733 50.1936 224.584 50.9083 224.584ZM50.9083 225.72C50.4389 225.72 50.0176 225.821 49.6443 226.024C49.2816 226.227 48.9883 226.504 48.7643 226.856C48.5509 227.208 48.4443 227.608 48.4443 228.056C48.4443 228.515 48.5509 228.925 48.7643 229.288C48.9883 229.64 49.2816 229.917 49.6443 230.12C50.0176 230.312 50.4389 230.408 50.9083 230.408C51.3669 230.408 51.7829 230.312 52.1563 230.12C52.5296 229.917 52.8229 229.64 53.0363 229.288C53.2496 228.925 53.3563 228.515 53.3563 228.056C53.3563 227.608 53.2496 227.208 53.0363 226.856C52.8229 226.504 52.5296 226.227 52.1563 226.024C51.7829 225.821 51.3669 225.72 50.9083 225.72ZM67.547 229.4H70.267V230.488H67.547V229.4ZM72.699 223.768H73.979V238.248H72.699V223.768ZM69.819 224.072H71.083V237.512H69.819V224.072ZM64.923 224.984C65.5523 224.984 66.0963 225.187 66.555 225.592C67.0243 225.997 67.387 226.579 67.643 227.336C67.899 228.093 68.027 228.984 68.027 230.008C68.027 231.043 67.899 231.939 67.643 232.696C67.387 233.453 67.0243 234.04 66.555 234.456C66.0963 234.861 65.5523 235.064 64.923 235.064C64.315 235.064 63.7763 234.861 63.307 234.456C62.8483 234.04 62.491 233.453 62.235 232.696C61.979 231.939 61.851 231.043 61.851 230.008C61.851 228.984 61.979 228.093 62.235 227.336C62.491 226.579 62.8483 225.997 63.307 225.592C63.7763 225.187 64.315 224.984 64.923 224.984ZM64.923 226.216C64.5497 226.216 64.2243 226.371 63.947 226.68C63.6697 226.989 63.4563 227.427 63.307 227.992C63.1577 228.557 63.083 229.229 63.083 230.008C63.083 230.787 63.1577 231.464 63.307 232.04C63.4563 232.605 63.6697 233.043 63.947 233.352C64.2243 233.661 64.5497 233.816 64.923 233.816C65.307 233.816 65.6377 233.661 65.915 233.352C66.203 233.043 66.4217 232.605 66.571 232.04C66.7203 231.464 66.795 230.787 66.795 230.008C66.795 229.229 66.7203 228.557 66.571 227.992C66.4217 227.427 66.203 226.989 65.915 226.68C65.6377 226.371 65.307 226.216 64.923 226.216ZM90.7978 223.784H92.1258V231.96H90.7978V223.784ZM91.7738 227.096H94.2698V228.2H91.7738V227.096ZM83.0058 232.744H92.1258V238.04H83.0058V232.744ZM90.8298 233.8H84.3018V236.968H90.8298V233.8ZM81.5818 224.504H82.9098V230.296H81.5818V224.504ZM81.5818 229.752H82.7338C83.7791 229.752 84.8458 229.709 85.9338 229.624C87.0218 229.528 88.1524 229.357 89.3258 229.112L89.4858 230.216C88.2698 230.461 87.1071 230.632 85.9978 230.728C84.8991 230.813 83.8111 230.856 82.7338 230.856H81.5818V229.752ZM97.3725 228.12H107.213V229.192H97.3725V228.12ZM95.5965 231.128H108.717V232.216H95.5965V231.128ZM97.3725 224.296H98.6845V228.664H97.3725V224.296ZM97.2765 236.808H107.293V237.896H97.2765V236.808ZM97.2765 233.672H98.6045V237.096H97.2765V233.672ZM128.687 232.68H117.663C115.727 232.68 115.343 232.072 115.343 230.216V224.904C115.343 223.864 116.143 223.48 116.991 223.48C117.791 223.48 118.623 223.928 118.623 224.936V225.656H125.423V224.904C125.423 223.864 126.207 223.48 127.055 223.48C127.871 223.48 128.687 223.88 128.687 224.904V232.68ZM125.423 230.088V228.152H118.623V229.608C118.623 229.928 118.735 230.088 119.119 230.088H125.423ZM115.919 235.192H128.143C129.135 235.192 129.519 235.896 129.519 236.552C129.519 237.224 129.119 237.896 128.143 237.896H115.919C114.943 237.896 114.543 237.224 114.543 236.552C114.543 235.896 114.927 235.192 115.919 235.192ZM142.511 229.736H141.791V234.216H138.991V224.568C138.991 223.736 139.551 223.192 140.399 223.192C141.247 223.192 141.791 223.736 141.791 224.568V227.24H142.511V224.568C142.511 223.736 143.071 223.192 143.919 223.192C144.767 223.192 145.311 223.736 145.311 224.568V234.216H142.511V229.736ZM137.535 232.36H133.455C131.839 232.36 130.815 231.24 130.815 229.72V229.448C130.815 227.912 131.823 226.952 133.295 226.952H135.199V226.312C135.199 226.056 135.103 225.992 134.815 225.992H132.047C131.295 225.992 130.959 225.384 130.959 224.84C130.959 224.264 131.311 223.656 132.047 223.656H136.015C137.391 223.656 138.127 224.424 138.127 225.64V229.08H134.527C134.255 229.08 134.015 229.224 134.015 229.544V229.608C134.015 229.912 134.255 230.04 134.527 230.04H137.535C138.271 230.04 138.607 230.648 138.607 231.208C138.607 231.768 138.303 232.36 137.535 232.36ZM135.311 235.752H144.351C145.295 235.752 145.663 236.344 145.663 236.984C145.663 237.64 145.279 238.216 144.351 238.216H133.983C132.191 238.216 131.711 237.592 131.711 235.88V234.488C131.711 233.48 132.463 232.984 133.359 232.984C134.255 232.984 134.959 233.496 134.959 234.488V235.432C134.959 235.704 135.039 235.752 135.311 235.752ZM149.967 223.704H159.199C160.111 223.704 160.431 224.44 160.431 225.048C160.431 225.656 160.095 226.376 159.199 226.376H151.103C150.767 226.376 150.655 226.472 150.655 226.808V229.272C150.655 229.608 150.767 229.72 151.103 229.72H159.455C160.351 229.72 160.703 230.456 160.703 231.048C160.703 231.656 160.335 232.392 159.455 232.392H149.967C148.047 232.392 147.391 231.704 147.391 229.848V226.232C147.391 224.392 148.047 223.704 149.967 223.704ZM147.919 235.192H160.143C161.135 235.192 161.519 235.896 161.519 236.552C161.519 237.224 161.119 237.896 160.143 237.896H147.919C146.943 237.896 146.543 237.224 146.543 236.552C146.543 235.896 146.927 235.192 147.919 235.192ZM171.599 230.424V231.288H165.135C163.583 231.288 163.007 230.888 163.007 229.416V225.544C163.007 224.072 163.583 223.656 165.135 223.656H169.567C170.751 223.656 171.359 223.928 171.535 224.888H173.871V224.776C173.871 223.736 174.623 223.192 175.471 223.192C176.319 223.192 177.071 223.736 177.071 224.776V231.656H173.871V230.424H171.599ZM165.967 226.264V228.648C165.967 228.856 166.063 228.984 166.319 228.984H168.671V226.264C168.671 226.056 168.591 225.944 168.367 225.944H166.271C166.047 225.944 165.967 226.072 165.967 226.264ZM171.599 228.168H173.871V227.144H171.599V228.168ZM166.991 232.152H173.775C176.095 232.152 177.247 233.4 177.247 235.208C177.247 237.016 176.095 238.264 173.775 238.264H166.991C164.655 238.264 163.519 236.968 163.519 235.208C163.519 233.432 164.655 232.152 166.991 232.152ZM167.791 236.088H172.991C173.695 236.088 173.999 235.688 173.999 235.208C173.999 234.728 173.695 234.328 172.991 234.328H167.791C167.087 234.328 166.767 234.728 166.767 235.208C166.767 235.688 167.087 236.088 167.791 236.088ZM22.724 272.616C22.1053 272.616 21.5347 272.467 21.012 272.168C20.5 271.859 20.0893 271.448 19.78 270.936C19.4707 270.413 19.316 269.837 19.316 269.208C19.316 268.568 19.4707 267.992 19.78 267.48C20.0893 266.968 20.5 266.563 21.012 266.264C21.5347 265.955 22.1053 265.8 22.724 265.8C23.3533 265.8 23.924 265.955 24.436 266.264C24.948 266.573 25.3587 266.984 25.668 267.496C25.9773 268.008 26.132 268.579 26.132 269.208C26.132 269.837 25.9773 270.413 25.668 270.936C25.3587 271.448 24.948 271.859 24.436 272.168C23.924 272.467 23.3533 272.616 22.724 272.616ZM35.8055 263.256H36.8935V264.424C36.8935 265.309 36.7228 266.136 36.3815 266.904C36.0508 267.661 35.5868 268.323 34.9895 268.888C34.3922 269.443 33.6882 269.864 32.8775 270.152L32.1735 269.128C32.8988 268.872 33.5335 268.504 34.0775 268.024C34.6215 267.544 35.0428 267 35.3415 266.392C35.6508 265.773 35.8055 265.117 35.8055 264.424V263.256ZM36.0455 263.256H37.1335V264.424C37.1335 265.053 37.2775 265.661 37.5655 266.248C37.8535 266.835 38.2588 267.352 38.7815 267.8C39.3148 268.248 39.9335 268.595 40.6375 268.84L39.9655 269.88C39.1762 269.592 38.4828 269.181 37.8855 268.648C37.2988 268.104 36.8455 267.469 36.5255 266.744C36.2055 266.019 36.0455 265.245 36.0455 264.424V263.256ZM32.5735 262.776H40.3175V263.864H32.5735V262.776ZM42.1415 261.768H43.4695V270.488H42.1415V261.768ZM43.1015 265.576H45.5975V266.696H43.1015V265.576ZM34.0615 271.256H43.4695V276.248H42.1415V272.344H34.0615V271.256ZM52.8123 268.616H54.1403V270.824H52.8123V268.616ZM46.9563 267.864H60.0283V268.936H46.9563V267.864ZM48.6523 262.248H58.3323V266.664H48.6523V262.248ZM57.0203 263.304H49.9483V265.608H57.0203V263.304ZM48.5403 270.344H58.3483V273.608H49.8683V275.368H48.5723V272.632H57.0523V271.368H48.5403V270.344ZM48.5723 275.048H58.7803V276.088H48.5723V275.048ZM66.363 262.824C67.1203 262.824 67.787 262.968 68.363 263.256C68.9497 263.533 69.4083 263.928 69.739 264.44C70.0697 264.952 70.235 265.549 70.235 266.232C70.235 266.904 70.0697 267.501 69.739 268.024C69.4083 268.536 68.9497 268.936 68.363 269.224C67.787 269.501 67.1203 269.64 66.363 269.64C65.6163 269.64 64.9497 269.501 64.363 269.224C63.7763 268.936 63.3123 268.536 62.971 268.024C62.6403 267.501 62.475 266.904 62.475 266.232C62.475 265.549 62.6403 264.952 62.971 264.44C63.3123 263.928 63.7763 263.533 64.363 263.256C64.9497 262.968 65.6163 262.824 66.363 262.824ZM66.363 263.976C65.8723 263.976 65.4297 264.072 65.035 264.264C64.651 264.445 64.347 264.707 64.123 265.048C63.899 265.389 63.787 265.784 63.787 266.232C63.787 266.68 63.899 267.075 64.123 267.416C64.347 267.757 64.651 268.024 65.035 268.216C65.4297 268.397 65.8723 268.488 66.363 268.488C66.8643 268.488 67.307 268.397 67.691 268.216C68.075 268.024 68.379 267.757 68.603 267.416C68.827 267.075 68.939 266.68 68.939 266.232C68.939 265.784 68.827 265.389 68.603 265.048C68.379 264.707 68.075 264.445 67.691 264.264C67.307 264.072 66.8643 263.976 66.363 263.976ZM72.139 261.768H73.467V276.264H72.139V261.768ZM61.931 273.096L61.755 271.976C62.6403 271.976 63.611 271.971 64.667 271.96C65.723 271.939 66.811 271.896 67.931 271.832C69.0617 271.757 70.1497 271.64 71.195 271.48L71.307 272.456C70.219 272.659 69.115 272.808 67.995 272.904C66.8857 272.989 65.8137 273.043 64.779 273.064C63.7443 273.085 62.795 273.096 61.931 273.096ZM91.4058 261.768H92.7338V276.264H91.4058V261.768ZM85.1018 262.888C85.8164 262.888 86.4458 263.096 86.9898 263.512C87.5444 263.917 87.9764 264.499 88.2858 265.256C88.6058 266.013 88.7658 266.904 88.7658 267.928C88.7658 268.952 88.6058 269.843 88.2858 270.6C87.9764 271.357 87.5444 271.944 86.9898 272.36C86.4458 272.776 85.8164 272.984 85.1018 272.984C84.3871 272.984 83.7524 272.776 83.1978 272.36C82.6431 271.944 82.2058 271.357 81.8858 270.6C81.5764 269.843 81.4218 268.952 81.4218 267.928C81.4218 266.904 81.5764 266.013 81.8858 265.256C82.2058 264.499 82.6431 263.917 83.1978 263.512C83.7524 263.096 84.3871 262.888 85.1018 262.888ZM85.1018 264.072C84.6218 264.072 84.2004 264.232 83.8378 264.552C83.4858 264.861 83.2084 265.309 83.0058 265.896C82.8031 266.472 82.7018 267.149 82.7018 267.928C82.7018 268.707 82.8031 269.389 83.0058 269.976C83.2084 270.552 83.4858 271 83.8378 271.32C84.2004 271.64 84.6218 271.8 85.1018 271.8C85.5711 271.8 85.9818 271.64 86.3338 271.32C86.6964 271 86.9791 270.552 87.1818 269.976C87.3844 269.389 87.4858 268.707 87.4858 267.928C87.4858 267.149 87.3844 266.472 87.1818 265.896C86.9791 265.309 86.6964 264.861 86.3338 264.552C85.9818 264.232 85.5711 264.072 85.1018 264.072ZM96.4285 263.192H103.085V272.616H96.4285V263.192ZM101.805 264.248H97.7405V271.544H101.805V264.248ZM106.125 261.768H107.453V276.264H106.125V261.768ZM114.155 263.848H115.243V266.184C115.243 266.952 115.137 267.709 114.923 268.456C114.71 269.192 114.411 269.891 114.027 270.552C113.654 271.203 113.217 271.779 112.715 272.28C112.214 272.781 111.675 273.176 111.099 273.464L110.331 272.408C110.854 272.152 111.345 271.805 111.803 271.368C112.273 270.931 112.683 270.429 113.035 269.864C113.387 269.299 113.659 268.701 113.851 268.072C114.054 267.443 114.155 266.813 114.155 266.184V263.848ZM114.427 263.848H115.499V266.184C115.499 266.792 115.595 267.4 115.787 268.008C115.99 268.605 116.267 269.171 116.619 269.704C116.982 270.227 117.393 270.691 117.851 271.096C118.321 271.501 118.822 271.821 119.355 272.056L118.619 273.112C118.033 272.835 117.483 272.461 116.971 271.992C116.459 271.523 116.011 270.984 115.627 270.376C115.254 269.757 114.961 269.096 114.747 268.392C114.534 267.677 114.427 266.941 114.427 266.184V263.848ZM110.795 263.256H118.875V264.36H110.795V263.256ZM120.843 261.768H122.171V276.248H120.843V261.768ZM125.034 268.488H138.154V269.512H125.034V268.488ZM126.602 270.664H136.522V273.752H127.946V275.448H126.634V272.84H135.21V271.624H126.602V270.664ZM126.634 275.096H136.986V276.056H126.634V275.096ZM126.698 262.2H136.474V265.208H128.042V266.776H126.73V264.312H135.162V263.144H126.698V262.2ZM126.73 266.456H136.73V267.416H126.73V266.456ZM154.173 261.768H155.501V269.96H154.173V261.768ZM155.133 265.304H157.629V266.408H155.133V265.304ZM144.941 268.056H146.061C147.053 268.056 147.922 268.045 148.669 268.024C149.415 267.992 150.103 267.944 150.733 267.88C151.362 267.805 151.997 267.704 152.637 267.576L152.797 268.648C152.125 268.787 151.463 268.893 150.813 268.968C150.173 269.043 149.474 269.091 148.717 269.112C147.959 269.133 147.074 269.144 146.061 269.144H144.941V268.056ZM144.941 262.744H151.293V263.816H146.253V268.68H144.941V262.744ZM146.413 270.728H155.501V276.04H146.413V270.728ZM154.189 271.8H147.709V274.968H154.189V271.8ZM158.988 269.384H172.06V270.456H158.988V269.384ZM160.668 274.84H170.604V275.928H160.668V274.84ZM160.668 271.736H161.996V275.16H160.668V271.736ZM165.516 262.264C166.55 262.264 167.446 262.381 168.204 262.616C168.972 262.84 169.564 263.171 169.98 263.608C170.396 264.035 170.604 264.547 170.604 265.144C170.604 265.741 170.396 266.259 169.98 266.696C169.564 267.133 168.972 267.469 168.204 267.704C167.446 267.928 166.55 268.04 165.516 268.04C164.481 268.04 163.58 267.928 162.812 267.704C162.054 267.469 161.468 267.133 161.052 266.696C160.636 266.259 160.428 265.741 160.428 265.144C160.428 264.547 160.636 264.035 161.052 263.608C161.468 263.171 162.054 262.84 162.812 262.616C163.58 262.381 164.481 262.264 165.516 262.264ZM165.516 263.336C164.769 263.336 164.113 263.411 163.548 263.56C162.993 263.699 162.561 263.907 162.252 264.184C161.942 264.451 161.788 264.771 161.788 265.144C161.788 265.517 161.942 265.843 162.252 266.12C162.561 266.387 162.993 266.595 163.548 266.744C164.113 266.883 164.769 266.952 165.516 266.952C166.284 266.952 166.945 266.883 167.5 266.744C168.054 266.595 168.481 266.387 168.78 266.12C169.089 265.843 169.244 265.517 169.244 265.144C169.244 264.771 169.089 264.451 168.78 264.184C168.481 263.907 168.054 263.699 167.5 263.56C166.945 263.411 166.284 263.336 165.516 263.336ZM187.038 273.272H191.55C192.51 273.272 192.894 273.928 192.894 274.584C192.894 275.272 192.494 275.896 191.55 275.896H179.262C178.318 275.896 177.918 275.272 177.918 274.584C177.918 273.928 178.302 273.272 179.262 273.272H183.774V271.048H181.662C179.582 271.048 178.494 269.96 178.494 268.232V267.944C178.494 266.232 179.582 265.176 181.662 265.176H188.654V264.664C188.654 264.456 188.59 264.216 188.222 264.216H179.886C179.134 264.216 178.67 263.592 178.67 262.936C178.67 262.312 179.134 261.672 179.886 261.672H189.182C191.358 261.672 191.982 262.664 191.982 264.168V267.592H182.494C182.126 267.592 181.95 267.768 181.95 268.072C181.95 268.408 182.126 268.552 182.494 268.552H191.182C192.062 268.552 192.398 269.224 192.398 269.816C192.398 270.408 192.046 271.048 191.182 271.048H187.038V273.272ZM204.542 264.424H195.854C194.894 264.424 194.446 263.704 194.446 263.048C194.446 262.408 194.878 261.672 195.854 261.672H205.63C207.518 261.672 208.094 262.392 208.094 263.96V265.72C208.094 268.216 207.758 270.104 207.342 271.112C206.91 272.072 205.758 272.424 204.926 272.024C204.318 271.704 204.062 271.112 204.302 270.392C204.734 269.224 204.942 267.784 204.942 265.784V264.824C204.942 264.6 204.798 264.424 204.542 264.424ZM201.838 273.272H207.55C208.51 273.272 208.894 273.928 208.894 274.584C208.894 275.272 208.494 275.896 207.55 275.896H195.262C194.318 275.896 193.918 275.272 193.918 274.584C193.918 273.928 194.302 273.272 195.262 273.272H198.574V268.424C198.574 267.384 199.358 267.064 200.206 267.064C201.038 267.064 201.838 267.4 201.838 268.424V273.272ZM22.724 310.616C22.1053 310.616 21.5347 310.467 21.012 310.168C20.5 309.859 20.0893 309.448 19.78 308.936C19.4707 308.413 19.316 307.837 19.316 307.208C19.316 306.568 19.4707 305.992 19.78 305.48C20.0893 304.968 20.5 304.563 21.012 304.264C21.5347 303.955 22.1053 303.8 22.724 303.8C23.3533 303.8 23.924 303.955 24.436 304.264C24.948 304.573 25.3587 304.984 25.668 305.496C25.9773 306.008 26.132 306.579 26.132 307.208C26.132 307.837 25.9773 308.413 25.668 308.936C25.3587 309.448 24.948 309.859 24.436 310.168C23.924 310.467 23.3533 310.616 22.724 310.616ZM42.1415 299.784H43.4695V310.632H42.1415V299.784ZM43.0535 304.536H45.5975V305.64H43.0535V304.536ZM32.2695 301.544H40.8135V302.616H32.2695V301.544ZM36.5415 303.4C37.2242 303.4 37.8268 303.517 38.3495 303.752C38.8722 303.976 39.2775 304.291 39.5655 304.696C39.8535 305.091 39.9975 305.56 39.9975 306.104C39.9975 306.648 39.8535 307.123 39.5655 307.528C39.2775 307.923 38.8722 308.232 38.3495 308.456C37.8268 308.68 37.2242 308.792 36.5415 308.792C35.8588 308.792 35.2562 308.68 34.7335 308.456C34.2108 308.232 33.8002 307.923 33.5015 307.528C33.2135 307.123 33.0695 306.648 33.0695 306.104C33.0695 305.56 33.2135 305.091 33.5015 304.696C33.8002 304.291 34.2108 303.976 34.7335 303.752C35.2562 303.517 35.8588 303.4 36.5415 303.4ZM36.5415 304.44C35.8908 304.44 35.3628 304.595 34.9575 304.904C34.5522 305.203 34.3495 305.603 34.3495 306.104C34.3495 306.605 34.5522 307.005 34.9575 307.304C35.3628 307.603 35.8908 307.752 36.5415 307.752C37.2028 307.752 37.7308 307.603 38.1255 307.304C38.5308 307.005 38.7335 306.605 38.7335 306.104C38.7335 305.603 38.5308 305.203 38.1255 304.904C37.7308 304.595 37.2028 304.44 36.5415 304.44ZM35.8855 299.784H37.2135V302.088H35.8855V299.784ZM34.4615 312.84H44.1095V313.928H34.4615V312.84ZM34.4615 309.768H35.7735V313.288H34.4615V309.768ZM57.3283 306.584H58.6403V308.792H57.3283V306.584ZM51.4563 305.8H64.5283V306.872H51.4563V305.8ZM53.0403 308.312H62.8483V311.624H54.3683V313.32H53.0723V310.664H61.5523V309.32H53.0403V308.312ZM53.0723 313.048H63.2803V314.088H53.0723V313.048ZM57.2323 300.68H58.3843V301.112C58.3843 301.56 58.2829 301.976 58.0803 302.36C57.8883 302.744 57.6056 303.091 57.2323 303.4C56.8696 303.709 56.4429 303.981 55.9523 304.216C55.4723 304.44 54.9443 304.632 54.3683 304.792C53.8029 304.941 53.2109 305.043 52.5923 305.096L52.1603 304.088C52.6936 304.045 53.2056 303.965 53.6963 303.848C54.1976 303.72 54.6616 303.565 55.0883 303.384C55.5149 303.203 55.8883 302.995 56.2083 302.76C56.5283 302.525 56.7789 302.269 56.9603 301.992C57.1416 301.715 57.2323 301.421 57.2323 301.112V300.68ZM57.6003 300.68H58.7523V301.112C58.7523 301.421 58.8429 301.72 59.0243 302.008C59.2056 302.285 59.4563 302.541 59.7763 302.776C60.0963 303 60.4696 303.203 60.8963 303.384C61.3229 303.565 61.7816 303.72 62.2723 303.848C62.7736 303.965 63.2963 304.045 63.8403 304.088L63.4083 305.096C62.7896 305.043 62.1923 304.941 61.6163 304.792C61.0509 304.632 60.5229 304.44 60.0323 304.216C59.5523 303.981 59.1256 303.709 58.7523 303.4C58.3896 303.091 58.1069 302.744 57.9043 302.36C57.7016 301.976 57.6003 301.56 57.6003 301.112V300.68ZM52.6562 300.264H63.3443V301.32H52.6562V300.264ZM66.175 311.352H79.295V312.456H66.175V311.352ZM72.047 308.264H73.359V311.816H72.047V308.264ZM67.775 300.84H77.663V305.224H69.119V308.12H67.807V304.168H76.351V301.928H67.775V300.84ZM67.807 307.56H77.999V308.648H67.807V307.56ZM89.2018 301.016H90.3058V303.608C90.3058 304.44 90.1991 305.251 89.9858 306.04C89.7831 306.819 89.4898 307.549 89.1058 308.232C88.7324 308.904 88.2898 309.501 87.7778 310.024C87.2764 310.536 86.7271 310.941 86.1298 311.24L85.3138 310.136C85.8578 309.891 86.3644 309.539 86.8338 309.08C87.3031 308.621 87.7138 308.104 88.0658 307.528C88.4178 306.941 88.6951 306.312 88.8978 305.64C89.1004 304.968 89.2018 304.291 89.2018 303.608V301.016ZM89.4258 301.016H90.5298V303.608C90.5298 304.269 90.6258 304.92 90.8178 305.56C91.0204 306.2 91.2978 306.808 91.6498 307.384C92.0124 307.949 92.4231 308.451 92.8818 308.888C93.3511 309.315 93.8524 309.651 94.3858 309.896L93.5858 310.952C92.9991 310.675 92.4551 310.285 91.9538 309.784C91.4524 309.283 91.0098 308.707 90.6258 308.056C90.2524 307.405 89.9591 306.701 89.7458 305.944C89.5324 305.187 89.4258 304.408 89.4258 303.608V301.016ZM95.9058 299.768H97.2338V314.264H95.9058V299.768ZM107.536 303.176H111.169V304.28H107.536V303.176ZM103.745 300.648H104.817V302.424C104.817 303.352 104.651 304.221 104.321 305.032C103.99 305.843 103.526 306.552 102.929 307.16C102.331 307.757 101.633 308.216 100.833 308.536L100.129 307.48C100.673 307.277 101.163 307.005 101.601 306.664C102.049 306.323 102.427 305.928 102.737 305.48C103.057 305.032 103.302 304.552 103.473 304.04C103.654 303.517 103.745 302.979 103.745 302.424V300.648ZM103.985 300.648H105.057V302.472C105.057 302.973 105.142 303.464 105.313 303.944C105.483 304.424 105.723 304.872 106.033 305.288C106.342 305.704 106.71 306.072 107.137 306.392C107.574 306.712 108.054 306.968 108.577 307.16L107.857 308.2C107.089 307.891 106.411 307.453 105.825 306.888C105.249 306.323 104.795 305.661 104.465 304.904C104.145 304.147 103.985 303.336 103.985 302.472V300.648ZM110.689 299.784H112.017V310.6H110.689V299.784ZM102.721 312.84H112.353V313.928H102.721V312.84ZM102.721 309.4H104.049V313.336H102.721V309.4ZM121.359 300.024C122.959 300.024 124.207 300.243 125.103 300.68C125.999 301.107 126.447 301.72 126.447 302.52C126.447 303.331 125.999 303.955 125.103 304.392C124.207 304.819 122.959 305.032 121.359 305.032C119.77 305.032 118.522 304.819 117.615 304.392C116.719 303.955 116.271 303.331 116.271 302.52C116.271 301.72 116.719 301.107 117.615 300.68C118.522 300.243 119.77 300.024 121.359 300.024ZM121.359 301.016C120.581 301.016 119.914 301.075 119.359 301.192C118.805 301.309 118.378 301.48 118.079 301.704C117.791 301.928 117.647 302.2 117.647 302.52C117.647 302.84 117.791 303.117 118.079 303.352C118.378 303.576 118.805 303.747 119.359 303.864C119.914 303.971 120.581 304.024 121.359 304.024C122.149 304.024 122.821 303.971 123.375 303.864C123.93 303.747 124.351 303.576 124.639 303.352C124.938 303.117 125.087 302.84 125.087 302.52C125.087 302.2 124.938 301.928 124.639 301.704C124.351 301.48 123.93 301.309 123.375 301.192C122.821 301.075 122.149 301.016 121.359 301.016ZM114.831 306.008H127.903V307.08H114.831V306.008ZM116.415 308.312H126.223V311.576H117.743V313.32H116.447V310.6H124.927V309.336H116.415V308.312ZM116.447 313.048H126.655V314.088H116.447V313.048ZM137.586 301.016H138.674V303.608C138.674 304.408 138.573 305.192 138.37 305.96C138.178 306.728 137.901 307.448 137.538 308.12C137.175 308.792 136.749 309.389 136.258 309.912C135.767 310.435 135.234 310.851 134.658 311.16L133.842 310.088C134.375 309.821 134.866 309.464 135.314 309.016C135.773 308.557 136.173 308.035 136.514 307.448C136.855 306.861 137.117 306.243 137.298 305.592C137.49 304.931 137.586 304.269 137.586 303.608V301.016ZM137.826 301.016H138.898V303.608C138.898 304.248 138.989 304.883 139.17 305.512C139.362 306.141 139.629 306.733 139.97 307.288C140.311 307.843 140.701 308.339 141.138 308.776C141.586 309.213 142.066 309.56 142.578 309.816L141.762 310.872C141.197 310.584 140.674 310.189 140.194 309.688C139.725 309.187 139.309 308.616 138.946 307.976C138.594 307.325 138.317 306.632 138.114 305.896C137.922 305.149 137.826 304.387 137.826 303.608V301.016ZM143.842 299.768H145.17V314.248H143.842V299.768ZM144.866 305.624H147.538V306.76H144.866V305.624ZM148.769 311.352H161.889V312.456H148.769V311.352ZM154.641 308.264H155.953V311.816H154.641V308.264ZM150.369 300.84H160.257V305.224H151.713V308.12H150.401V304.168H158.945V301.928H150.369V300.84ZM150.401 307.56H160.593V308.648H150.401V307.56ZM167.04 301.112H168.112V302.296C168.112 303.149 167.946 303.949 167.616 304.696C167.285 305.432 166.81 306.072 166.192 306.616C165.584 307.16 164.874 307.576 164.064 307.864L163.392 306.808C164.117 306.563 164.752 306.216 165.296 305.768C165.85 305.32 166.277 304.797 166.576 304.2C166.885 303.592 167.04 302.957 167.04 302.296V301.112ZM167.264 301.112H168.368V302.28C168.368 302.888 168.512 303.475 168.8 304.04C169.088 304.605 169.493 305.101 170.016 305.528C170.549 305.955 171.173 306.285 171.888 306.52L171.264 307.56C170.453 307.293 169.749 306.904 169.152 306.392C168.554 305.869 168.09 305.256 167.76 304.552C167.429 303.837 167.264 303.08 167.264 302.28V301.112ZM163.808 300.728H171.552V301.816H163.808V300.728ZM173.392 299.768H174.72V307.704H173.392V299.768ZM174.352 303.112H176.848V304.216H174.352V303.112ZM165.6 308.392H166.911V310.136H173.392V308.392H174.72V314.056H165.6V308.392ZM166.911 311.192V312.968H173.392V311.192H166.911ZM179.966 304.12H189.806V305.192H179.966V304.12ZM178.19 307.128H191.31V308.216H178.19V307.128ZM179.966 300.296H181.278V304.664H179.966V300.296ZM179.87 312.808H189.886V313.896H179.87V312.808ZM179.87 309.672H181.198V313.096H179.87V309.672ZM206.257 306.312H210.897C211.729 306.312 212.113 306.776 212.113 307.432C212.113 308.104 211.713 308.536 210.897 308.536H198.353C197.537 308.536 197.137 308.104 197.137 307.432C197.137 306.776 197.521 306.312 198.353 306.312H202.993V305.656H201.457C199.009 305.656 198.145 304.44 198.145 303.064C198.145 302.856 198.177 302.664 198.241 302.472C197.681 302.408 197.265 301.992 197.265 301.368C197.265 300.696 197.713 300.264 198.369 300.264H202.865C202.897 299.48 203.569 298.904 204.625 298.904C205.681 298.904 206.353 299.48 206.385 300.264H210.865C211.537 300.264 211.985 300.696 211.985 301.368C211.985 301.992 211.585 302.424 210.993 302.472C211.057 302.664 211.089 302.856 211.089 303.064C211.089 304.44 210.241 305.656 207.777 305.656H206.257V306.312ZM201.345 302.952C201.345 303.352 201.617 303.624 202.081 303.624H207.169C207.617 303.624 207.889 303.352 207.889 302.952C207.889 302.552 207.585 302.296 207.137 302.296H202.113C201.649 302.296 201.345 302.552 201.345 302.952ZM200.609 309.064H208.641C210.705 309.064 211.665 310.088 211.665 311.656C211.665 313.24 210.705 314.264 208.641 314.264H200.609C198.545 314.264 197.585 313.24 197.585 311.656C197.585 310.088 198.545 309.064 200.609 309.064ZM201.553 312.168H207.713C208.225 312.168 208.417 311.976 208.417 311.656C208.417 311.352 208.225 311.144 207.713 311.144H201.553C201.025 311.144 200.833 311.352 200.833 311.656C200.833 311.976 201.025 312.168 201.553 312.168ZM222.257 311.272H226.769C227.729 311.272 228.113 311.928 228.113 312.584C228.113 313.272 227.713 313.896 226.769 313.896H214.481C213.537 313.896 213.137 313.272 213.137 312.584C213.137 311.928 213.521 311.272 214.481 311.272H218.993V308.52H216.225C214.305 308.52 213.937 307.912 213.937 306.088V300.904C213.937 299.864 214.737 299.48 215.585 299.48C216.385 299.48 217.217 299.928 217.217 300.936V301.592H224.017V300.904C224.017 299.864 224.801 299.48 225.649 299.48C226.465 299.48 227.281 299.88 227.281 300.904V308.52H222.257V311.272ZM217.217 304.072V305.464C217.217 305.784 217.329 305.944 217.713 305.944H224.017V304.072H217.217ZM247.893 305.48H236.485C234.661 305.48 234.325 304.952 234.325 303.192V301.72C234.325 299.96 234.661 299.432 236.485 299.432H245.733C247.557 299.432 247.893 299.96 247.893 301.72V305.48ZM237.525 302.024V302.872C237.525 303.064 237.573 303.192 237.893 303.192H244.693V302.024C244.693 301.864 244.661 301.72 244.357 301.72H237.861C237.557 301.72 237.525 301.864 237.525 302.024ZM234.949 306.232H247.269C248.213 306.232 248.597 306.856 248.597 307.512C248.597 308.184 248.197 308.776 247.269 308.776H242.901V310.856H239.637V308.776H234.949C234.021 308.776 233.621 308.184 233.621 307.512C233.621 306.856 234.005 306.232 234.949 306.232ZM238.133 311.752H246.757C247.733 311.752 248.101 312.344 248.101 312.984C248.101 313.64 247.717 314.216 246.757 314.216H236.709C234.901 314.216 234.421 313.624 234.421 311.928V310.808C234.421 309.736 235.189 309.336 236.085 309.336C236.981 309.336 237.701 309.752 237.701 310.808V311.368C237.701 311.704 237.781 311.752 238.133 311.752ZM263.173 307.272H263.253C264.213 307.272 264.597 307.928 264.597 308.584C264.597 309.256 264.197 309.896 263.253 309.896H258.741V314.296H255.477V309.896H250.965C250.021 309.896 249.621 309.256 249.621 308.584C249.621 307.928 250.005 307.272 250.965 307.272H259.877C260.389 306.392 260.645 305.256 260.645 303.624V302.744C260.645 302.52 260.501 302.344 260.245 302.344H251.557C250.597 302.344 250.149 301.624 250.149 300.968C250.149 300.328 250.581 299.592 251.557 299.592H261.333C263.221 299.592 263.797 300.312 263.797 301.88V303.4C263.797 304.936 263.557 306.248 263.173 307.272ZM22.724 348.616C22.1053 348.616 21.5347 348.467 21.012 348.168C20.5 347.859 20.0893 347.448 19.78 346.936C19.4707 346.413 19.316 345.837 19.316 345.208C19.316 344.568 19.4707 343.992 19.78 343.48C20.0893 342.968 20.5 342.563 21.012 342.264C21.5347 341.955 22.1053 341.8 22.724 341.8C23.3533 341.8 23.924 341.955 24.436 342.264C24.948 342.573 25.3587 342.984 25.668 343.496C25.9773 344.008 26.132 344.579 26.132 345.208C26.132 345.837 25.9773 346.413 25.668 346.936C25.3587 347.448 24.948 347.859 24.436 348.168C23.924 348.467 23.3533 348.616 22.724 348.616ZM36.0935 339.352H37.1975V340.84C37.1975 341.725 37.0268 342.547 36.6855 343.304C36.3442 344.061 35.8642 344.728 35.2455 345.304C34.6375 345.869 33.9282 346.296 33.1175 346.584L32.4295 345.544C33.1548 345.277 33.7895 344.909 34.3335 344.44C34.8882 343.971 35.3202 343.427 35.6295 342.808C35.9388 342.179 36.0935 341.523 36.0935 340.84V339.352ZM36.3495 339.352H37.4375V340.84C37.4375 341.331 37.5228 341.805 37.6935 342.264C37.8748 342.712 38.1308 343.133 38.4615 343.528C38.7922 343.912 39.1762 344.253 39.6135 344.552C40.0615 344.851 40.5522 345.085 41.0855 345.256L40.4135 346.296C39.6135 346.019 38.9095 345.613 38.3015 345.08C37.6935 344.547 37.2135 343.917 36.8615 343.192C36.5202 342.467 36.3495 341.683 36.3495 340.84V339.352ZM32.7815 338.968H40.7015V340.056H32.7815V338.968ZM42.7655 337.784H44.0935V348.376H42.7655V337.784ZM34.7975 350.84H44.5415V351.928H34.7975V350.84ZM34.7975 347.384H36.1255V351.32H34.7975V347.384ZM57.4843 337.784H58.8123V345.992H57.4843V337.784ZM49.4683 346.824H58.8123V352.056H49.4683V346.824ZM57.5163 347.896H50.7643V350.968H57.5163V347.896ZM50.7163 338.344H51.8203V339.752C51.8203 340.648 51.6496 341.491 51.3083 342.28C50.9669 343.059 50.4869 343.736 49.8683 344.312C49.2603 344.888 48.5456 345.331 47.7243 345.64L47.0683 344.584C47.6123 344.392 48.1083 344.131 48.5563 343.8C49.0043 343.469 49.3883 343.091 49.7083 342.664C50.0389 342.237 50.2896 341.779 50.4603 341.288C50.6309 340.787 50.7163 340.275 50.7163 339.752V338.344ZM50.9563 338.344H52.0603V339.752C52.0603 340.264 52.1456 340.755 52.3163 341.224C52.4976 341.693 52.7483 342.131 53.0683 342.536C53.3989 342.931 53.7829 343.283 54.2203 343.592C54.6683 343.901 55.1589 344.147 55.6923 344.328L55.0363 345.352C54.4389 345.149 53.8896 344.867 53.3883 344.504C52.8869 344.141 52.4549 343.715 52.0923 343.224C51.7296 342.733 51.4469 342.195 51.2443 341.608C51.0523 341.021 50.9563 340.403 50.9563 339.752V338.344ZM68.203 338.024C69.803 338.024 71.051 338.243 71.947 338.68C72.843 339.107 73.291 339.72 73.291 340.52C73.291 341.331 72.843 341.955 71.947 342.392C71.051 342.819 69.803 343.032 68.203 343.032C66.6137 343.032 65.3657 342.819 64.459 342.392C63.563 341.955 63.115 341.331 63.115 340.52C63.115 339.72 63.563 339.107 64.459 338.68C65.3657 338.243 66.6137 338.024 68.203 338.024ZM68.203 339.016C67.4243 339.016 66.7577 339.075 66.203 339.192C65.6483 339.309 65.2217 339.48 64.923 339.704C64.635 339.928 64.491 340.2 64.491 340.52C64.491 340.84 64.635 341.117 64.923 341.352C65.2217 341.576 65.6483 341.747 66.203 341.864C66.7577 341.971 67.4243 342.024 68.203 342.024C68.9923 342.024 69.6643 341.971 70.219 341.864C70.7737 341.747 71.195 341.576 71.483 341.352C71.7817 341.117 71.931 340.84 71.931 340.52C71.931 340.2 71.7817 339.928 71.483 339.704C71.195 339.48 70.7737 339.309 70.219 339.192C69.6643 339.075 68.9923 339.016 68.203 339.016ZM61.675 344.008H74.747V345.08H61.675V344.008ZM63.259 346.312H73.067V349.576H64.587V351.32H63.291V348.6H71.771V347.336H63.259V346.312ZM63.291 351.048H73.499V352.088H63.291V351.048ZM88.5578 341.768H92.2218V342.856H88.5578V341.768ZM91.4698 337.784H92.7978V348.392H91.4698V337.784ZM83.5658 350.84H93.1978V351.928H83.5658V350.84ZM83.5658 347.448H84.8778V351.384H83.5658V347.448ZM84.5738 339.576H85.6618V340.744C85.6618 341.619 85.4911 342.445 85.1498 343.224C84.8191 343.992 84.3498 344.664 83.7418 345.24C83.1338 345.805 82.4298 346.243 81.6298 346.552L80.9418 345.48C81.4751 345.288 81.9604 345.032 82.3978 344.712C82.8458 344.392 83.2351 344.024 83.5658 343.608C83.8964 343.192 84.1471 342.739 84.3177 342.248C84.4884 341.757 84.5738 341.256 84.5738 340.744V339.576ZM84.8298 339.576H85.9178V340.744C85.9178 341.363 86.0618 341.965 86.3498 342.552C86.6378 343.139 87.0484 343.661 87.5818 344.12C88.1151 344.568 88.7284 344.915 89.4218 345.16L88.7498 346.216C87.9604 345.928 87.2724 345.512 86.6858 344.968C86.0991 344.413 85.6404 343.773 85.3098 343.048C84.9898 342.323 84.8298 341.555 84.8298 340.744V339.576ZM81.3578 338.952H89.0858V340.04H81.3578V338.952ZM105.421 337.768H106.733V352.248H105.421V337.768ZM106.429 343.72H109.101V344.84H106.429V343.72ZM95.5325 340.088H104.061V341.176H95.5325V340.088ZM99.8685 342.36C100.551 342.36 101.154 342.504 101.677 342.792C102.21 343.08 102.626 343.475 102.925 343.976C103.234 344.467 103.389 345.037 103.389 345.688C103.389 346.339 103.234 346.915 102.925 347.416C102.626 347.917 102.21 348.312 101.677 348.6C101.154 348.877 100.551 349.016 99.8685 349.016C99.1858 349.016 98.5778 348.877 98.0445 348.6C97.5218 348.312 97.1058 347.917 96.7965 347.416C96.4872 346.915 96.3325 346.339 96.3325 345.688C96.3325 345.037 96.4872 344.467 96.7965 343.976C97.1058 343.475 97.5218 343.08 98.0445 342.792C98.5778 342.504 99.1858 342.36 99.8685 342.36ZM99.8685 343.464C99.4312 343.464 99.0418 343.56 98.7005 343.752C98.3592 343.944 98.0872 344.205 97.8845 344.536C97.6925 344.867 97.5965 345.251 97.5965 345.688C97.5965 346.125 97.6925 346.515 97.8845 346.856C98.0872 347.187 98.3592 347.448 98.7005 347.64C99.0418 347.821 99.4312 347.912 99.8685 347.912C100.295 347.912 100.679 347.821 101.021 347.64C101.362 347.448 101.629 347.187 101.821 346.856C102.023 346.515 102.125 346.125 102.125 345.688C102.125 345.251 102.023 344.867 101.821 344.536C101.629 344.205 101.362 343.944 101.021 343.752C100.679 343.56 100.295 343.464 99.8685 343.464ZM99.1805 337.944H100.509V340.568H99.1805V337.944ZM112.091 342.12H121.931V343.192H112.091V342.12ZM110.315 345.128H123.435V346.216H110.315V345.128ZM112.091 338.296H113.403V342.664H112.091V338.296ZM111.995 350.808H122.011V351.896H111.995V350.808ZM111.995 347.672H113.323V351.096H111.995V347.672ZM143.39 341.192H143.886C144.862 341.192 145.15 341.944 145.15 342.584C145.15 343.24 144.846 343.976 143.886 343.976H143.39V348.536H140.19V338.776C140.19 337.736 140.942 337.192 141.79 337.192C142.638 337.192 143.39 337.736 143.39 338.776V341.192ZM137.95 340.216H130.782C129.998 340.216 129.55 339.576 129.55 338.952C129.55 338.328 129.934 337.672 130.782 337.672H137.95C138.798 337.672 139.182 338.328 139.182 338.952C139.182 339.576 138.734 340.216 137.95 340.216ZM138.51 346.056H130.59C129.806 346.056 129.374 345.496 129.374 344.872C129.374 344.248 129.742 343.704 130.59 343.704H130.814V341.96C130.814 341.224 131.374 340.76 132.302 340.76C133.214 340.76 133.742 341.24 133.742 341.96V343.704H135.07V341.96C135.07 341.224 135.598 340.76 136.526 340.76C137.438 340.76 138.014 341.24 138.014 341.96V343.704H138.51C139.358 343.704 139.726 344.248 139.726 344.872C139.726 345.496 139.294 346.056 138.51 346.056ZM134.142 349.752H142.574C143.534 349.752 143.902 350.328 143.902 350.968C143.902 351.624 143.518 352.216 142.574 352.216H132.782C130.99 352.216 130.51 351.592 130.51 349.88V348.28C130.51 347.24 131.262 346.744 132.158 346.744C133.054 346.744 133.758 347.256 133.758 348.28V349.4C133.758 349.704 133.838 349.752 134.142 349.752ZM158.638 337.192C159.486 337.192 160.03 337.736 160.03 338.568V352.216H157.23V345.656H156.43V352.216H153.63V338.568C153.63 337.736 154.19 337.192 155.038 337.192C155.886 337.192 156.43 337.736 156.43 338.568V343H157.23V338.568C157.23 337.736 157.79 337.192 158.638 337.192ZM147.902 337.72H150.302C152.27 337.72 152.654 338.344 152.654 340.36V351.608H147.902C145.934 351.608 145.55 350.984 145.55 348.968V340.36C145.55 338.344 145.934 337.72 147.902 337.72ZM148.926 349.192H149.806V340.664C149.806 340.344 149.726 340.136 149.374 340.136H148.814C148.462 340.136 148.398 340.344 148.398 340.664V348.648C148.398 349 148.51 349.192 148.926 349.192ZM174.99 344.696H162.51C161.662 344.696 161.262 344.216 161.262 343.544C161.262 342.888 161.646 342.392 162.51 342.392H171.758C172.014 341.864 172.174 341.224 172.174 340.552V340.216C172.174 339.928 172.062 339.864 171.774 339.864H163.406C162.366 339.864 161.934 339.368 161.934 338.632C161.934 337.944 162.35 337.416 163.406 337.416H173.502C174.782 337.416 175.326 338.008 175.326 339.112V339.912C175.326 341 175.118 341.832 174.83 342.392H174.99C175.854 342.392 176.238 342.888 176.238 343.544C176.238 344.216 175.838 344.696 174.99 344.696ZM165.582 350.328H175.134C175.79 350.328 176.03 350.808 176.03 351.272C176.03 351.736 175.806 352.216 175.134 352.216H163.726C162.35 352.216 161.71 351.208 161.71 350.104V349.864C161.71 348.728 162.334 347.912 163.726 347.912H172.286V347.528C172.286 347.384 172.19 347.272 171.934 347.272H162.782C162.19 347.272 161.87 346.808 161.87 346.344C161.87 345.88 162.142 345.4 162.782 345.4H173.79C175.15 345.4 175.582 345.912 175.582 346.888V349.688H165.582C165.31 349.688 165.15 349.784 165.15 350.024C165.15 350.248 165.31 350.328 165.582 350.328Z" fill="white"/>
</svg>
