<svg width="18" height="14" viewBox="0 0 18 14" fill="none" xmlns="http://www.w3.org/2000/svg">
<path fill-rule="evenodd" clip-rule="evenodd" d="M10.354 3.74997H1C0.801088 3.74997 0.610322 3.67096 0.46967 3.5303C0.329018 3.38965 0.25 3.19889 0.25 2.99997C0.25 2.80106 0.329018 2.6103 0.46967 2.46964C0.610322 2.32899 0.801088 2.24997 1 2.24997H10.354C10.5174 1.67405 10.8643 1.16716 11.3419 0.806225C11.8195 0.445286 12.4018 0.25 13.0005 0.25C13.5992 0.25 14.1815 0.445286 14.6591 0.806225C15.1367 1.16716 15.4836 1.67405 15.647 2.24997H17C17.1989 2.24997 17.3897 2.32899 17.5303 2.46964C17.671 2.6103 17.75 2.80106 17.75 2.99997C17.75 3.19889 17.671 3.38965 17.5303 3.5303C17.3897 3.67096 17.1989 3.74997 17 3.74997H15.646C15.4823 4.32549 15.1354 4.83192 14.6579 5.19252C14.1804 5.55311 13.5983 5.74819 13 5.74819C12.4017 5.74819 11.8196 5.55311 11.3421 5.19252C10.8646 4.83192 10.5177 4.32549 10.354 3.74997ZM11.75 2.99997C11.75 2.66845 11.8817 2.35051 12.1161 2.11609C12.3505 1.88167 12.6685 1.74997 13 1.74997C13.3315 1.74997 13.6495 1.88167 13.8839 2.11609C14.1183 2.35051 14.25 2.66845 14.25 2.99997C14.25 3.3315 14.1183 3.64944 13.8839 3.88386C13.6495 4.11828 13.3315 4.24997 13 4.24997C12.6685 4.24997 12.3505 4.11828 12.1161 3.88386C11.8817 3.64944 11.75 3.3315 11.75 2.99997ZM7.647 11.75H17C17.1989 11.75 17.3897 11.671 17.5303 11.5303C17.671 11.3897 17.75 11.1989 17.75 11C17.75 10.8011 17.671 10.6103 17.5303 10.4696C17.3897 10.329 17.1989 10.25 17 10.25H7.647C7.48356 9.67405 7.13672 9.16716 6.6591 8.80622C6.18148 8.44529 5.59916 8.25 5.0005 8.25C4.40184 8.25 3.81952 8.44529 3.3419 8.80622C2.86428 9.16716 2.51744 9.67405 2.354 10.25H1C0.801088 10.25 0.610322 10.329 0.46967 10.4696C0.329018 10.6103 0.25 10.8011 0.25 11C0.25 11.1989 0.329018 11.3897 0.46967 11.5303C0.610322 11.671 0.801088 11.75 1 11.75H2.354C2.51773 12.3255 2.86464 12.8319 3.34213 13.1925C3.81962 13.5531 4.40165 13.7482 5 13.7482C5.59835 13.7482 6.18038 13.5531 6.65787 13.1925C7.13536 12.8319 7.48227 12.3255 7.646 11.75M3.75 11C3.75 10.6685 3.8817 10.3505 4.11612 10.1161C4.35054 9.88167 4.66848 9.74998 5 9.74998C5.33152 9.74998 5.64946 9.88167 5.88388 10.1161C6.1183 10.3505 6.25 10.6685 6.25 11C6.25 11.3315 6.1183 11.6494 5.88388 11.8839C5.64946 12.1183 5.33152 12.25 5 12.25C4.66848 12.25 4.35054 12.1183 4.11612 11.8839C3.8817 11.6494 3.75 11.3315 3.75 11Z" fill="black"/>
</svg>
