<svg width="24" height="24" viewBox="0 0 24 24" fill="none" xmlns="http://www.w3.org/2000/svg">
<path d="M11.25 2.07327C10.644 2.18627 9.932 2.43027 8.838 2.80527L8.265 3.00027C5.258 4.03027 3.755 4.54427 3.378 5.08227C3.008 5.60827 3 7.15027 3 10.2103L11.25 7.46027V2.07327ZM11.25 9.04027L3 11.7903V11.9913C3 17.6293 7.239 20.3653 9.899 21.5273C10.409 21.7503 10.739 21.8943 11.25 21.9593V9.04027ZM12.75 21.9603V9.04027L21 11.7903V11.9913C21 17.6293 16.761 20.3653 14.101 21.5273C13.591 21.7503 13.261 21.8953 12.75 21.9603ZM12.75 7.46027V2.07227C13.356 2.18527 14.068 2.42927 15.162 2.80427L15.735 3.00027C18.742 4.02927 20.245 4.54327 20.622 5.08127C20.992 5.60727 21 7.14927 21 10.2083L12.75 7.46027Z" fill="black"/>
</svg>
