<svg width="19" height="18" viewBox="0 0 19 18" fill="none" xmlns="http://www.w3.org/2000/svg">
<path fill-rule="evenodd" clip-rule="evenodd" d="M4.08301 12.1875C4.39367 12.1875 4.64551 12.4393 4.64551 12.75V14.25C4.64551 14.3536 4.72945 14.4375 4.83301 14.4375H13.833C13.9366 14.4375 14.0205 14.3536 14.0205 14.25V12.75C14.0205 12.4393 14.2723 12.1875 14.583 12.1875C14.8937 12.1875 15.1455 12.4393 15.1455 12.75V14.25C15.1455 14.9749 14.5579 15.5625 13.833 15.5625H4.83301C4.10813 15.5625 3.52051 14.9749 3.52051 14.25V12.75C3.52051 12.4393 3.77235 12.1875 4.08301 12.1875Z" fill="black"/>
<path d="M8.38647 2.8125C8.00068 2.8125 7.67886 3.10734 7.64517 3.49166C7.52994 4.8062 7.50961 6.12719 7.58429 7.44438C7.39905 7.45462 7.21389 7.46648 7.0288 7.47997L5.91167 7.56141C5.48095 7.5928 5.24017 8.07307 5.47271 8.43699C6.26923 9.68356 7.29558 10.7673 8.49704 11.6303L8.9446 11.9518C9.17672 12.1186 9.48937 12.1186 9.7215 11.9518L10.1691 11.6303C11.3705 10.7673 12.3969 9.68356 13.1934 8.43699C13.4259 8.07307 13.1851 7.5928 12.7544 7.56141L11.6373 7.47997C11.4522 7.46648 11.267 7.45462 11.0818 7.44438C11.1565 6.12719 11.1362 4.80619 11.0209 3.49166C10.9872 3.10734 10.6654 2.8125 10.2796 2.8125H8.38647Z" fill="black"/>
</svg>
