<svg width="344" height="418" viewBox="0 0 344 418" fill="none" xmlns="http://www.w3.org/2000/svg">
<path d="M98.6025 344.57H70.3485C68.6765 344.57 67.3225 345.924 67.3225 347.596V391.464C67.3225 393.136 68.6765 394.49 70.3485 394.49H98.6025C100.274 394.49 101.626 393.136 101.626 391.464V347.594C101.626 345.922 100.272 344.57 98.6025 344.57ZM142.656 254H114.402C112.73 254 111.376 255.354 111.376 257.026V391.462C111.376 393.134 112.73 394.488 114.402 394.488H142.656C144.328 394.488 145.682 393.134 145.682 391.462V257.026C145.682 255.354 144.328 254 142.656 254ZM186.936 294.842H158.682C157.01 294.842 155.656 296.196 155.656 297.868V391.462C155.656 393.134 157.01 394.488 158.682 394.488H186.934C188.606 394.488 189.96 393.134 189.96 391.462V297.868C189.96 296.198 188.606 294.842 186.936 294.842ZM54.3225 294.842H26.0685C24.3965 294.842 23.0425 296.196 23.0425 297.868V391.462C23.0425 393.134 24.3965 394.488 26.0685 394.488H54.3225C55.9945 394.488 57.3485 393.134 57.3485 391.462V297.868C57.3485 296.198 55.9945 294.842 54.3225 294.842Z" fill="#E2E4F1" fill-opacity="0.3"/>
<path d="M313.663 13.6604L247.408 79.928H238.292L217.1 58.7229L170.158 105.678L161.042 96.5625L212.542 45.0625H221.658L242.85 66.2676L309.105 0H318.208L343.958 25.75L334.855 34.8655L313.663 13.6604Z" fill="#E2E4F1" fill-opacity="0.3"/>
</svg>
