<svg width="20" height="23" viewBox="0 0 20 23" fill="none" xmlns="http://www.w3.org/2000/svg">
<path fill-rule="evenodd" clip-rule="evenodd" d="M19.9335 2.25499L19.3435 3.83599L18.6115 5.53299C17.9325 6.98799 16.9995 8.68899 15.8835 9.86299C14.8185 10.983 13.2105 12.016 11.9235 12.749C12.093 13.5618 12.0574 14.404 11.82 15.1995C11.5825 15.9951 11.1507 16.719 10.5635 17.306C8.2935 19.576 5.7565 19.576 3.8695 19.016C2.83783 18.7123 1.86816 18.2281 1.0055 17.586L0.140496 16.868C0.0942933 16.8292 0.0576297 16.7802 0.0333338 16.725C0.00903786 16.6697 -0.00224071 16.6096 0.000368345 16.5493C0.0029774 16.489 0.0194043 16.4302 0.0483816 16.3772C0.0773588 16.3243 0.118112 16.2787 0.167496 16.244L0.499496 16.007C1.2275 15.477 1.9785 14.825 2.1575 13.927C2.27216 13.0017 2.33783 12.4973 2.3545 12.414C2.4925 11.725 2.7845 10.943 3.4915 10.234C4.07844 9.64678 4.80237 9.21496 5.59796 8.97753C6.39354 8.74009 7.23572 8.70451 8.0485 8.87399C8.7815 7.58699 9.8135 5.97899 10.9345 4.91399C12.1085 3.79799 13.8095 2.86399 15.2645 2.18599L16.9605 1.45299L18.5425 0.863992C18.7362 0.797463 18.9448 0.786666 19.1443 0.83283C19.3439 0.878994 19.5265 0.980264 19.6714 1.12511C19.8162 1.26996 19.9175 1.45257 19.9637 1.65214C20.0098 1.85172 19.999 2.06025 19.9325 2.25399L19.9335 2.25499ZM4.9065 11.649C4.5535 12.001 4.4005 12.383 4.3155 12.806C4.2015 13.732 4.13583 14.2367 4.1185 14.32C3.9385 15.224 3.4095 15.97 2.9685 16.468C3.43426 16.7313 3.92756 16.9425 4.4395 17.098C5.8235 17.51 7.5295 17.51 9.1495 15.891C9.43176 15.6132 9.65624 15.2823 9.80998 14.9173C9.96372 14.5524 10.0437 14.1606 10.0452 13.7646C10.0468 13.3686 9.96995 12.9761 9.8191 12.61C9.66825 12.2438 9.4464 11.9111 9.16634 11.6311C8.88628 11.3512 8.55355 11.1294 8.18735 10.9786C7.82115 10.8278 7.42872 10.7511 7.0327 10.7527C6.63668 10.7544 6.24491 10.8345 5.87999 10.9883C5.51506 11.1421 5.1842 11.3667 4.9065 11.649ZM9.8965 9.67399C10.374 10.0087 10.7892 10.4242 11.1235 10.902C11.5145 10.675 11.9185 10.429 12.3135 10.17L12.2835 10.103C12.1191 9.75704 11.8958 9.44234 11.6235 9.17299C11.3829 8.93223 11.1075 8.72896 10.8065 8.56999L10.6265 8.48399C10.3685 8.87899 10.1225 9.28199 9.8965 9.67399ZM17.3385 3.45899C16.9545 3.61799 16.5385 3.79899 16.1085 3.99899C14.7005 4.65599 13.2425 5.47899 12.3125 6.36299C12.1552 6.51299 11.9985 6.67733 11.8425 6.85599C12.2045 7.05599 12.6245 7.34599 13.0375 7.75999C13.4515 8.17299 13.7405 8.59299 13.9415 8.95499C14.1202 8.79899 14.2845 8.64233 14.4345 8.48499C15.3185 7.55499 16.1415 6.09699 16.7985 4.68799C16.9985 4.25799 17.1785 3.84199 17.3385 3.45899Z" fill="black"/>
</svg> 