<svg width="16" height="16" viewBox="0 0 16 16" fill="none" xmlns="http://www.w3.org/2000/svg">
<path d="M2.29875 12.1069L1.72375 11.7748L8.13 0.679688L8.70463 1.01169L2.29875 12.1069Z" fill="black"/>
<path d="M1.59167 10.8887H14.4037V11.5524H1.59167V10.8887Z" fill="black"/>
<path d="M8.25383 14.961L1.8457 11.2612L2.1777 10.686L8.58595 14.3862L8.25383 14.961ZM13.8207 5.31784L7.41258 1.61759L7.74458 1.04297L14.1528 4.74259L13.8207 5.31784Z" fill="black"/>
<path d="M2.17917 5.31589L1.84705 4.74077L8.2558 1.04102L8.5878 1.61577L2.17917 5.31589Z" fill="black"/>
<path d="M13.7026 12.1069L7.29685 1.01169L7.8716 0.679688L14.2779 11.7748L13.7026 12.1069ZM2.09998 4.30019H2.7641V11.7007H2.1001L2.09998 4.30019Z" fill="black"/>
<path d="M13.2358 4.29883H13.8998V11.6993H13.2358V4.29883Z" fill="black"/>
<path d="M8.14107 14.6796L7.85107 14.1771L13.4243 10.959L13.7143 11.4615L8.14107 14.6796Z" fill="black"/>
<path d="M14.7797 11.916C14.396 12.584 13.54 12.812 12.8721 12.4282C12.2041 12.044 11.9761 11.188 12.3599 10.52C12.7441 9.85197 13.6001 9.62397 14.2681 10.0078C14.94 10.396 15.168 11.248 14.7797 11.916ZM3.63623 5.47997C3.25198 6.14797 2.39598 6.37597 1.72798 5.99209C1.05998 5.60784 0.831981 4.75197 1.21586 4.08397C1.60011 3.41597 2.45598 3.18797 3.12398 3.57172C3.79198 3.95997 4.01998 4.81197 3.63623 5.47997ZM1.22023 11.916C0.835856 11.248 1.06398 10.396 1.73186 10.0077C2.39986 9.62397 3.25186 9.85197 3.64011 10.52C4.02386 11.188 3.79586 12.04 3.12786 12.4282C2.45598 12.812 1.60398 12.584 1.22023 11.916ZM12.3637 5.47997C11.98 4.81197 12.208 3.95997 12.876 3.57172C13.544 3.18797 14.396 3.41597 14.7841 4.08397C15.1679 4.75197 14.94 5.60397 14.272 5.99222C13.604 6.37597 12.748 6.14797 12.3637 5.47997ZM7.99998 15.832C7.81662 15.8321 7.63503 15.7961 7.4656 15.726C7.29617 15.6559 7.14222 15.553 7.01257 15.4234C6.88291 15.2937 6.78009 15.1398 6.70998 14.9704C6.63987 14.8009 6.60385 14.6193 6.60398 14.436C6.60385 14.2526 6.63987 14.071 6.70998 13.9016C6.78009 13.7322 6.88291 13.5782 7.01257 13.4486C7.14222 13.3189 7.29617 13.2161 7.4656 13.146C7.63503 13.0759 7.81662 13.0398 7.99998 13.04C8.18334 13.0398 8.36493 13.0759 8.53436 13.146C8.70379 13.2161 8.85774 13.3189 8.9874 13.4486C9.11705 13.5782 9.21988 13.7322 9.28998 13.9016C9.36009 14.071 9.39611 14.2526 9.39598 14.436C9.39598 15.2041 8.77198 15.832 7.99998 15.832ZM7.99998 2.95997C7.81662 2.9601 7.63503 2.92408 7.4656 2.85397C7.29617 2.78386 7.14222 2.68104 7.01257 2.55138C6.88291 2.42173 6.78009 2.26778 6.70998 2.09835C6.63987 1.92892 6.60385 1.74733 6.60398 1.56397C6.60385 1.38061 6.63987 1.19902 6.70998 1.02959C6.78009 0.860158 6.88291 0.706212 7.01257 0.576555C7.14222 0.446898 7.29617 0.344074 7.4656 0.273965C7.63503 0.203856 7.81662 0.167838 7.99998 0.167969C8.18334 0.167838 8.36493 0.203856 8.53436 0.273965C8.70379 0.344074 8.85774 0.446898 8.9874 0.576555C9.11705 0.706212 9.21988 0.860158 9.28998 1.02959C9.36009 1.19902 9.39611 1.38061 9.39598 1.56397C9.39611 1.74733 9.36009 1.92892 9.28998 2.09835C9.21988 2.26778 9.11705 2.42173 8.9874 2.55138C8.85774 2.68104 8.70379 2.78386 8.53436 2.85397C8.36493 2.92408 8.18334 2.9601 7.99998 2.95997Z" fill="black"/>
</svg>
