<svg width="32" height="32" viewBox="0 0 32 32" fill="none" xmlns="http://www.w3.org/2000/svg">
<path fill-rule="evenodd" clip-rule="evenodd" d="M10.2668 10C10.2668 6.87043 12.8038 4.33337 15.9334 4.33337C19.063 4.33337 21.6001 6.87043 21.6001 10C21.6001 13.1297 19.063 15.6667 15.9334 15.6667C12.8038 15.6667 10.2668 13.1297 10.2668 10ZM15.9334 6.33337C13.9084 6.33337 12.2668 7.975 12.2668 10C12.2668 12.0251 13.9084 13.6667 15.9334 13.6667C17.9585 13.6667 19.6001 12.0251 19.6001 10C19.6001 7.975 17.9585 6.33337 15.9334 6.33337Z" fill="black"/>
<path fill-rule="evenodd" clip-rule="evenodd" d="M10.6001 19.6667C8.94324 19.6667 7.6001 21.0099 7.6001 22.6667V24.2511C7.6001 24.2752 7.61758 24.2958 7.64139 24.2997C13.1331 25.1963 18.7338 25.1963 24.2255 24.2997C24.2493 24.2958 24.2668 24.2752 24.2668 24.2511V22.6667C24.2668 21.0099 22.9236 19.6667 21.2668 19.6667H20.8123C20.7771 19.6667 20.7422 19.6723 20.7088 19.6832L19.5548 20.06C17.2017 20.8284 14.6652 20.8284 12.3121 20.06L11.1581 19.6832C11.1247 19.6723 11.0897 19.6667 11.0546 19.6667H10.6001ZM5.6001 22.6667C5.6001 19.9053 7.83867 17.6667 10.6001 17.6667H11.0546C11.3006 17.6667 11.545 17.7056 11.7789 17.782L12.9329 18.1588C14.8826 18.7954 16.9843 18.7954 18.934 18.1588L20.088 17.782C20.3218 17.7056 20.5663 17.6667 20.8123 17.6667H21.2668C24.0282 17.6667 26.2668 19.9053 26.2668 22.6667V24.2511C26.2668 25.2554 25.5389 26.1117 24.5477 26.2735C18.8426 27.205 13.0242 27.205 7.31913 26.2735C6.32794 26.1117 5.6001 25.2554 5.6001 24.2511V22.6667Z" fill="black"/>
</svg>
