<svg width="28" height="28" viewBox="0 0 28 28" fill="none" xmlns="http://www.w3.org/2000/svg">
<path d="M22.3262 4.53903H20.0567V3.40428C20.0567 3.10333 19.9371 2.8147 19.7243 2.60189C19.5115 2.38909 19.2229 2.26953 18.9219 2.26953C18.621 2.26953 18.3323 2.38909 18.1195 2.60189C17.9067 2.8147 17.7872 3.10333 17.7872 3.40428V4.53903H10.9787V3.40428C10.9787 3.10333 10.8591 2.8147 10.6463 2.60189C10.4335 2.38909 10.1449 2.26953 9.84391 2.26953C9.54296 2.26953 9.25433 2.38909 9.04152 2.60189C8.82871 2.8147 8.70916 3.10333 8.70916 3.40428V4.53903H6.43966C5.53679 4.53903 4.67091 4.8977 4.03248 5.53612C3.39406 6.17454 3.0354 7.04043 3.0354 7.94329V21.5603C3.0354 22.4632 3.39406 23.3291 4.03248 23.9675C4.67091 24.6059 5.53679 24.9646 6.43966 24.9646H22.3262C23.229 24.9646 24.0949 24.6059 24.7334 23.9675C25.3718 23.3291 25.7304 22.4632 25.7304 21.5603V7.94329C25.7304 7.04043 25.3718 6.17454 24.7334 5.53612C24.0949 4.8977 23.229 4.53903 22.3262 4.53903ZM23.4609 21.5603C23.4609 21.8613 23.3414 22.1499 23.1286 22.3627C22.9158 22.5755 22.6271 22.6951 22.3262 22.6951H6.43966C6.1387 22.6951 5.85007 22.5755 5.63727 22.3627C5.42446 22.1499 5.3049 21.8613 5.3049 21.5603V13.617H23.4609V21.5603ZM23.4609 11.3475H5.3049V7.94329C5.3049 7.64233 5.42446 7.35371 5.63727 7.1409C5.85007 6.92809 6.1387 6.80854 6.43966 6.80854H8.70916V7.94329C8.70916 8.24424 8.82871 8.53287 9.04152 8.74568C9.25433 8.95849 9.54296 9.07804 9.84391 9.07804C10.1449 9.07804 10.4335 8.95849 10.6463 8.74568C10.8591 8.53287 10.9787 8.24424 10.9787 7.94329V6.80854H17.7872V7.94329C17.7872 8.24424 17.9067 8.53287 18.1195 8.74568C18.3323 8.95849 18.621 9.07804 18.9219 9.07804C19.2229 9.07804 19.5115 8.95849 19.7243 8.74568C19.9371 8.53287 20.0567 8.24424 20.0567 7.94329V6.80854H22.3262C22.6271 6.80854 22.9158 6.92809 23.1286 7.1409C23.3414 7.35371 23.4609 7.64233 23.4609 7.94329V11.3475Z" fill="black"/>
</svg>
