<svg width="10" height="17" viewBox="0 0 10 17" fill="none" xmlns="http://www.w3.org/2000/svg">
<path d="M5.1754 7.46089C3.03158 6.90369 2.34215 6.32759 2.34215 5.4304C2.34215 4.40098 3.29601 3.68323 4.89208 3.68323C6.57314 3.68323 7.19646 4.48598 7.25312 5.6665H9.34028C9.27417 4.0421 8.28253 2.54993 6.3087 2.06827V0H3.47545V2.03994C1.64328 2.4366 0.169995 3.62656 0.169995 5.44929C0.169995 7.63089 1.97383 8.71697 4.60875 9.34973C6.9698 9.91638 7.442 10.7475 7.442 11.6258C7.442 12.2774 6.97924 13.3163 4.89208 13.3163C2.94658 13.3163 2.1816 12.4474 2.07772 11.333H0C0.11333 13.4013 1.66217 14.5629 3.47545 14.9501V16.9995H6.3087V14.969C8.15032 14.6196 9.61416 13.5524 9.61416 11.6163C9.61416 8.93418 7.31923 8.0181 5.1754 7.46089Z" fill="black"/>
</svg>
