<svg width="25" height="24" viewBox="0 0 25 24" fill="none" xmlns="http://www.w3.org/2000/svg">
<g clip-path="url(#clip0_151_2199)">
<path d="M22.5002 12H19.6668L20.0002 10.6666H22.5002C22.677 10.6666 22.8465 10.5964 22.9716 10.4714C23.0966 10.3463 23.1668 10.1768 23.1668 9.99996C23.1668 9.82315 23.0966 9.65358 22.9716 9.52856C22.8465 9.40354 22.677 9.3333 22.5002 9.3333H20.3268L21.7735 3.4933C21.7846 3.33703 21.7403 3.18184 21.6485 3.05496C21.5566 2.92808 21.4229 2.8376 21.271 2.79942C21.1191 2.76124 20.9585 2.77778 20.8176 2.84615C20.6766 2.91452 20.5642 3.03034 20.5002 3.1733L18.9535 9.3333H14.7068L13.1668 3.1733C13.1307 3.02915 13.0474 2.9012 12.9303 2.80978C12.8131 2.71836 12.6688 2.6687 12.5202 2.6687C12.3716 2.6687 12.2272 2.71836 12.11 2.80978C11.9929 2.9012 11.9096 3.02915 11.8735 3.1733L10.3602 9.3333H6.1135L4.58683 3.1733C4.53899 3.00773 4.42889 2.86712 4.27963 2.78097C4.13037 2.69482 3.95354 2.66982 3.78624 2.71121C3.61895 2.7526 3.47418 2.85717 3.38231 3.00299C3.29045 3.1488 3.25861 3.32452 3.2935 3.4933L4.74016 9.3333H2.50016C2.32335 9.3333 2.15378 9.40354 2.02876 9.52856C1.90373 9.65358 1.8335 9.82315 1.8335 9.99996C1.8335 10.1768 1.90373 10.3463 2.02876 10.4714C2.15378 10.5964 2.32335 10.6666 2.50016 10.6666H5.06683L5.40016 12H2.50016C2.32335 12 2.15378 12.0702 2.02876 12.1952C1.90373 12.3203 1.8335 12.4898 1.8335 12.6666C1.8335 12.8434 1.90373 13.013 2.02876 13.138C2.15378 13.2631 2.32335 13.3333 2.50016 13.3333H5.72683L7.58683 20.8266C7.62296 20.9708 7.70621 21.0987 7.82338 21.1902C7.94054 21.2816 8.08489 21.3312 8.2335 21.3312C8.38211 21.3312 8.52646 21.2816 8.64362 21.1902C8.76078 21.0987 8.84404 20.9708 8.88016 20.8266L10.7402 13.3333H14.3268L16.1868 20.8266C16.223 20.9708 16.3062 21.0987 16.4234 21.1902C16.5405 21.2816 16.6849 21.3312 16.8335 21.3312C16.9821 21.3312 17.1265 21.2816 17.2436 21.1902C17.3608 21.0987 17.444 20.9708 17.4802 20.8266L19.3335 13.3333H22.5002C22.677 13.3333 22.8465 13.2631 22.9716 13.138C23.0966 13.013 23.1668 12.8434 23.1668 12.6666C23.1668 12.4898 23.0966 12.3203 22.9716 12.1952C22.8465 12.0702 22.677 12 22.5002 12ZM18.6202 10.6666L18.2868 12H15.3668L15.0335 10.6666H18.6202ZM12.5002 6.10663L13.3335 9.3333H11.7335L12.5002 6.10663ZM6.44016 10.6666H10.0268L9.6935 12H6.7735L6.44016 10.6666ZM8.2335 17.8933L7.10683 13.3333H9.36683L8.2335 17.8933ZM11.0668 12L11.4002 10.6666H13.6602L13.9935 12H11.0668ZM16.8268 17.8933L15.7002 13.3333H17.9602L16.8268 17.8933Z" fill="black"/>
</g>
<defs>
<clipPath id="clip0_151_2199">
<rect width="24" height="24" fill="white" transform="translate(0.5)"/>
</clipPath>
</defs>
</svg>
