<svg width="16" height="16" viewBox="0 0 16 16" fill="none" xmlns="http://www.w3.org/2000/svg">
<path d="M14.9271 13.0642C15.1822 13.3477 15.1822 13.7729 14.8988 14.0281L14.105 14.8218C13.8498 15.1053 13.4246 15.1053 13.1411 14.8218L10.3346 12.0153C10.1928 11.8735 10.1361 11.7034 10.1361 11.5333V11.0514C9.11555 11.8452 7.86819 12.2988 6.50744 12.2988C3.2473 12.2988 0.61084 9.6623 0.61084 6.40216C0.61084 3.17038 3.2473 0.505566 6.50744 0.505566C9.73923 0.505566 12.404 3.17038 12.404 6.40216C12.404 7.79127 11.9221 9.03862 11.1567 10.0308H11.6103C11.7804 10.0308 11.9505 10.1159 12.0922 10.2293L14.9271 13.0642ZM6.50744 10.0308C8.49187 10.0308 10.1361 8.41495 10.1361 6.40216C10.1361 4.41773 8.49187 2.77349 6.50744 2.77349C4.49466 2.77349 2.87876 4.41773 2.87876 6.40216C2.87876 8.41495 4.49466 10.0308 6.50744 10.0308Z" fill="#F4F6F8"/>
</svg>
