<svg width="242" height="36" viewBox="0 0 242 36" fill="none" xmlns="http://www.w3.org/2000/svg">
<rect y="0.292969" width="242" height="35.4146" rx="7.37805" fill="#FEE500"/>
<path d="M86.9118 14.06C86.9002 17.1035 85.9664 19.8126 82.1967 21.6687L81.5973 20.8502C83.4648 19.9337 84.5773 18.8212 85.1941 17.507L81.8163 17.8298L81.6549 16.8845L85.5284 16.6193C85.684 16.0948 85.7762 15.5357 85.8166 14.9477H82.1967V14.06H86.9118ZM89.5863 13.011V17.1381H91.1887V18.0373H89.5863V23.3287H88.4911V13.011H89.5863ZM97.1142 14.06C97.1027 17.1035 96.1689 19.8126 92.3992 21.6687L91.7997 20.8502C93.6673 19.9337 94.7797 18.8212 95.3965 17.507L92.0187 17.8298L91.8574 16.8845L95.7308 16.6193C95.8865 16.0948 95.9787 15.5357 96.019 14.9477H92.3992V14.06H97.1142ZM99.7888 13.011V17.1381H101.391V18.0373H99.7888V23.3287H98.6936V13.011H99.7888ZM106.648 13.6335C108.861 13.645 110.464 14.7287 110.464 16.3772C110.464 17.9278 109.121 18.948 107.19 19.1094V21.1384H111.398V22.0491H101.945V21.1384H106.106V19.1094C104.187 18.948 102.844 17.9278 102.844 16.3772C102.844 14.7287 104.446 13.645 106.648 13.6335ZM106.648 14.5327C105.057 14.5212 103.904 15.259 103.904 16.3772C103.904 17.5416 105.057 18.2563 106.648 18.2678C108.25 18.2563 109.403 17.5416 109.403 16.3772C109.403 15.259 108.25 14.5212 106.648 14.5327ZM123.906 13.011V23.3402H122.868V13.011H123.906ZM121.796 13.2761V22.833H120.759V19.3169H118.995V18.4177H120.759V16.7346H119.168C118.666 18.4696 117.565 19.974 115.617 21.1384L114.971 20.3544C117.162 19.0518 118.217 17.3168 118.407 15.1898H115.479V14.2906H119.49C119.49 14.8209 119.45 15.3339 119.364 15.8354H120.759V13.2761H121.796ZM133.843 13.011V19.1555H132.748V16.5386H130.823V15.6394H132.748V13.011H133.843ZM130.385 19.4437C132.552 19.4437 133.878 20.1585 133.878 21.392C133.878 22.6255 132.552 23.3287 130.385 23.3402C128.217 23.3287 126.88 22.6255 126.892 21.392C126.88 20.1585 128.217 19.4437 130.385 19.4437ZM130.385 20.2968C128.874 20.2968 127.975 20.6888 127.975 21.392C127.975 22.0837 128.874 22.4872 130.385 22.4756C131.895 22.4872 132.794 22.0837 132.794 21.392C132.794 20.6888 131.895 20.2968 130.385 20.2968ZM128.932 14.8324C128.932 16.1467 129.866 17.4148 131.422 17.9451L130.857 18.8097C129.699 18.4062 128.846 17.5819 128.402 16.5617C127.946 17.7203 127.041 18.6483 125.808 19.0979L125.231 18.2217C126.834 17.6684 127.814 16.2735 127.814 14.844V14.6134H125.577V13.7257H131.145V14.6134H128.932V14.8324ZM140.137 13.6335C142.305 13.6335 143.953 14.7748 143.953 16.5156C143.953 18.2563 142.305 19.4091 140.137 19.3976C137.97 19.4091 136.333 18.2563 136.333 16.5156C136.333 14.7748 137.97 13.6335 140.137 13.6335ZM140.137 14.5212C138.558 14.5096 137.371 15.3166 137.382 16.5156C137.371 17.726 138.558 18.4984 140.137 18.4984C141.717 18.4984 142.893 17.726 142.893 16.5156C142.893 15.3166 141.717 14.5096 140.137 14.5212ZM144.887 21.0922V22.003H135.434V21.0922H144.887ZM155.09 21.1845V22.1067H145.636V21.1845H149.798V19.3745H146.789V16.089H152.853V14.6365H146.766V13.7373H153.937V16.9652H147.873V18.4753H154.179V19.3745H150.882V21.1845H155.09ZM168.174 21.1845V22.1067H158.721V21.1845H162.883V19.3745H159.874V16.089H165.938V14.6365H159.851V13.7373H167.021V16.9652H160.957V18.4753H167.263V19.3745H163.966V21.1845H168.174ZM177.108 14.06V15.1668C177.108 16.504 177.108 17.9566 176.728 20.1585L175.61 20.0547C176.025 17.9912 176.025 16.4694 176.025 15.1668V14.9592H169.938V14.06H177.108ZM178.342 20.9654V21.8762H168.923V20.9654H178.342ZM187.691 13.0225V20.5274H186.596V13.0225H187.691ZM188.003 22.2335V23.1212H180.936V19.7665H182.042V22.2335H188.003ZM182.089 13.7142C183.645 13.7142 184.832 14.7748 184.832 16.2735C184.832 17.7952 183.645 18.8443 182.089 18.8443C180.532 18.8443 179.333 17.7952 179.333 16.2735C179.333 14.7748 180.532 13.7142 182.089 13.7142ZM182.089 14.671C181.12 14.671 180.405 15.3281 180.405 16.2735C180.405 17.2418 181.12 17.8874 182.089 17.8874C183.034 17.8874 183.76 17.2418 183.76 16.2735C183.76 15.3281 183.034 14.671 182.089 14.671Z" fill="black"/>
<path fill-rule="evenodd" clip-rule="evenodd" d="M61.9763 9.88477C57.4937 9.88477 53.8604 12.7557 53.8604 16.2966C53.8604 18.4987 55.2657 20.44 57.4057 21.5946L56.5053 24.9586C56.4257 25.2558 56.7581 25.4927 57.0133 25.3205L60.9603 22.6564C61.2933 22.6892 61.6318 22.7084 61.9763 22.7084C66.4584 22.7084 70.0921 19.8376 70.0921 16.2966C70.0921 12.7557 66.4584 9.88477 61.9763 9.88477Z" fill="black"/>
</svg>
